<?xml version="1.0" encoding="utf-8"?>
<svg id="master-artboard" viewBox="0 0 1400 980" xmlns="http://www.w3.org/2000/svg" width="1400px" height="980px"><defs><clipPath id="clip-path"><path d="M 0 0 H 1400 V 980 H 0 V 0 Z" class="cls-1" style="fill: none;"/></clipPath></defs><title>outer-space-lines</title><path d="M 0 0 H 1400 V 980 H 0 V 0 Z" class="cls-2" style="fill: rgb(58, 24, 124);" transform="matrix(1, 0, 0, 1, 2.842170943040401e-14, 7.105427357601002e-15)"/><g class="cls-4" transform="matrix(1, 0, 0, 1, 5.684341886080802e-14, 1.4210854715202004e-14)" style="clip-path: url('#clip-path'); opacity: 0.05;"><path class="cls-5" d="M3351.29,937.57c-89.19,1.43-177.76,42.82-263.42,82.85-83.86,39.2-170.58,79.73-255.78,81.09s-170.63-36.4-253.31-72.91c-84.53-37.33-171.94-75.93-261.18-74.51s-177.77,42.83-263.42,82.86c-83.87,39.19-170.59,79.72-255.78,81.08s-170.63-36.39-253.31-72.91c-84.54-37.33-171.94-75.93-261.19-74.5s-177.76,42.82-263.42,82.85c-83.86,39.19-170.58,79.72-255.78,81.08s-170.63-36.39-253.31-72.9c-84.53-37.34-171.94-75.94-261.18-74.51S72.44,1030-13.21,1070c-83.87,39.2-170.59,79.73-255.78,81.09s-170.64-36.4-253.31-72.91c-84.54-37.33-171.94-75.93-261.19-74.51s-177.76,42.82-263.42,82.85c-83.86,39.2-170.58,79.73-255.78,81.09s-170.63-36.4-253.31-72.91c-84.53-37.33-171.94-75.93-261.18-74.51l.3,19.76c85.14-1.36,170.63,36.4,253.31,72.91,84.53,37.33,171.94,75.93,261.18,74.51s177.77-42.82,263.42-82.85c83.87-39.2,170.59-79.73,255.78-81.09s170.63,36.39,253.31,72.91c84.53,37.33,172,75.93,261.19,74.5S-90.93,1128-5.27,1088c83.86-39.19,170.58-79.72,255.78-81.08s170.63,36.4,253.31,72.91c84.53,37.33,171.94,75.93,261.19,74.5s177.76-42.82,263.41-82.85c83.87-39.19,170.59-79.72,255.78-81.08s170.64,36.39,253.31,72.91c84.54,37.32,171.94,75.93,261.19,74.5s177.76-42.82,263.42-82.85c83.86-39.2,170.58-79.73,255.78-81.09s170.63,36.4,253.31,72.91c84.53,37.33,171.94,75.93,261.18,74.51s177.77-42.82,263.42-82.85c83.87-39.2,170.59-79.73,255.78-81.09Z" style="fill: rgb(151, 233, 252);"/><path class="cls-5" d="M3362.22,877.56c-89.19,1.43-177.76,42.82-263.41,82.86-83.87,39.19-170.59,79.72-255.78,81.08s-170.64-36.4-253.32-72.91c-84.53-37.33-171.94-75.93-261.18-74.5s-177.76,42.82-263.42,82.85c-83.86,39.19-170.58,79.72-255.78,81.08s-170.63-36.39-253.31-72.9c-84.53-37.33-171.94-75.94-261.19-74.51s-177.76,42.82-263.41,82.85c-83.87,39.19-170.59,79.72-255.78,81.09s-170.64-36.4-253.31-72.91c-84.54-37.33-172-75.93-261.19-74.51S83.38,970-2.28,1010c-83.86,39.2-170.58,79.73-255.78,81.09s-170.63-36.4-253.31-72.91c-84.53-37.33-171.94-75.93-261.18-74.51S-950.32,986.47-1036,1026.5c-83.87,39.2-170.59,79.73-255.78,81.09s-170.63-36.39-253.31-72.91c-84.54-37.33-172-75.93-261.19-74.5l.3,19.76c85.14-1.37,170.64,36.39,253.31,72.9,84.54,37.33,171.94,75.94,261.19,74.51s177.76-42.82,263.42-82.85c83.86-39.2,170.58-79.73,255.78-81.09s170.63,36.4,253.3,72.91c84.54,37.33,172,75.93,261.19,74.51S-80,1068,5.66,1028c83.87-39.2,170.59-79.73,255.78-81.09s170.63,36.4,253.31,72.91c84.53,37.33,172,75.93,261.19,74.51s177.76-42.83,263.41-82.86c83.87-39.19,170.59-79.72,255.78-81.08s170.64,36.39,253.32,72.91c84.53,37.33,171.94,75.93,261.18,74.5s177.77-42.82,263.42-82.85c83.87-39.19,170.59-79.72,255.78-81.09s170.63,36.4,253.31,72.91c84.53,37.33,171.94,75.94,261.19,74.51s177.76-42.82,263.41-82.85c83.87-39.2,170.59-79.72,255.78-81.09Z" style="fill: rgb(151, 233, 252);"/><path class="cls-5" d="M3373.16,817.56c-89.19,1.42-177.77,42.82-263.42,82.85-83.87,39.19-170.59,79.72-255.78,81.08s-170.63-36.39-253.31-72.91c-84.53-37.33-171.94-75.93-261.19-74.5s-177.76,42.82-263.41,82.85c-83.87,39.19-170.59,79.72-255.79,81.08s-170.63-36.39-253.3-72.9c-84.54-37.33-172-75.94-261.19-74.51S1128,893.42,1042.35,933.45c-83.87,39.2-170.58,79.73-255.78,81.09s-170.63-36.4-253.31-72.91c-84.53-37.33-171.94-75.93-261.19-74.51S94.31,909.94,8.66,950c-83.87,39.2-170.59,79.73-255.78,81.09s-170.64-36.4-253.32-72.91c-84.53-37.33-171.94-75.93-261.18-74.51S-939.38,926.46-1025,966.5c-83.86,39.19-170.59,79.72-255.78,81.08s-170.63-36.39-253.31-72.91c-84.53-37.33-171.94-75.93-261.19-74.5l.3,19.76c85.14-1.37,170.64,36.39,253.32,72.91,84.53,37.32,171.94,75.93,261.18,74.5s177.76-42.82,263.42-82.85c83.86-39.2,170.59-79.72,255.78-81.09S-590.69,939.8-508,976.31c84.53,37.33,171.94,75.94,261.19,74.51S-69.06,1008,16.59,968c83.87-39.2,170.59-79.72,255.78-81.09S443,923.28,525.69,959.79c84.53,37.33,171.94,75.93,261.18,74.51s177.76-42.82,263.42-82.86c83.86-39.19,170.58-79.72,255.78-81.08s170.63,36.39,253.31,72.91c84.53,37.33,171.94,75.93,261.18,74.5S1998.33,975,2084,934.92c83.86-39.19,170.58-79.72,255.77-81.08s170.64,36.39,253.31,72.9c84.54,37.34,171.95,75.94,261.19,74.51S3032,958.43,3117.68,918.4c83.86-39.19,170.58-79.72,255.78-81.08Z" style="fill: rgb(151, 233, 252);"/><path class="cls-5" d="M3384.09,757.55c-89.19,1.42-177.76,42.82-263.42,82.85-83.86,39.19-170.58,79.72-255.78,81.08s-170.63-36.39-253.31-72.9c-84.53-37.34-171.94-75.94-261.18-74.51S2172.63,816.89,2087,856.92c-83.87,39.19-170.59,79.73-255.78,81.09s-170.63-36.4-253.31-72.91c-84.53-37.33-171.94-75.93-261.19-74.51s-177.76,42.82-263.42,82.85c-83.86,39.2-170.58,79.73-255.78,81.09s-170.63-36.4-253.31-72.91C459.66,844.29,372.25,805.69,283,807.11S105.24,849.93,19.59,890c-83.87,39.2-170.59,79.73-255.78,81.09s-170.64-36.39-253.31-72.91c-84.54-37.33-171.94-75.93-261.19-74.5s-177.76,42.81-263.42,82.85c-83.86,39.19-170.58,79.72-255.78,81.08s-170.63-36.39-253.3-72.9c-84.54-37.33-172-75.94-261.19-74.51l.3,19.76c85.14-1.36,170.63,36.39,253.31,72.91,84.53,37.33,171.94,75.93,261.18,74.5s177.77-42.82,263.42-82.85c83.87-39.19,170.59-79.72,255.78-81.09s170.63,36.4,253.31,72.91c84.53,37.33,172,75.94,261.19,74.51S-58.13,948,27.53,908c83.86-39.2,170.58-79.72,255.78-81.09s170.63,36.4,253.31,72.91c84.53,37.33,171.94,75.93,261.19,74.51s177.76-42.82,263.41-82.85c83.87-39.2,170.59-79.73,255.78-81.09s170.64,36.4,253.31,72.91c84.54,37.33,171.94,75.93,261.19,74.51s177.76-42.83,263.42-82.86c83.87-39.19,170.58-79.72,255.78-81.08s170.63,36.39,253.31,72.91c84.53,37.33,171.94,75.93,261.18,74.5s177.77-42.82,263.42-82.85c83.87-39.19,170.59-79.72,255.78-81.08Z" style="fill: rgb(151, 233, 252);"/><path class="cls-5" d="M3395,697.54c-89.19,1.42-177.76,42.82-263.41,82.85-83.87,39.19-170.59,79.72-255.78,81.09s-170.64-36.4-253.32-72.91c-84.53-37.33-171.94-75.94-261.18-74.51s-177.76,42.82-263.42,82.85c-83.86,39.2-170.58,79.73-255.78,81.09s-170.63-36.4-253.31-72.91c-84.53-37.33-171.94-75.93-261.19-74.51s-177.76,42.82-263.41,82.85c-83.87,39.2-170.59,79.73-255.78,81.09s-170.64-36.4-253.31-72.91c-84.54-37.33-171.95-75.93-261.19-74.5S116.18,789.93,30.52,830C-53.34,869.15-140.06,909.68-225.26,911s-170.63-36.39-253.31-72.91c-84.53-37.33-171.94-75.93-261.18-74.5s-177.77,42.82-263.42,82.85c-83.87,39.19-170.59,79.72-255.78,81.08s-170.63-36.39-253.31-72.9c-84.53-37.33-172-75.94-261.19-74.51l.3,19.76c85.14-1.36,170.64,36.39,253.31,72.91,84.54,37.33,171.94,75.93,261.19,74.5s177.76-42.82,263.42-82.85c83.86-39.19,170.58-79.72,255.78-81.08s170.63,36.39,253.3,72.9c84.54,37.33,172,75.94,261.19,74.51S-47.19,888,38.46,848c83.87-39.2,170.59-79.72,255.78-81.08s170.63,36.39,253.31,72.9c84.53,37.34,172,75.94,261.19,74.51s177.76-42.82,263.41-82.85c83.87-39.2,170.59-79.73,255.78-81.09s170.64,36.4,253.32,72.91c84.53,37.33,171.94,75.93,261.18,74.51s177.77-42.82,263.42-82.86c83.87-39.19,170.59-79.72,255.78-81.08s170.63,36.4,253.31,72.91c84.53,37.33,171.94,75.93,261.19,74.5s177.76-42.81,263.41-82.85c83.87-39.19,170.59-79.72,255.78-81.08Z" style="fill: rgb(151, 233, 252);"/><path class="cls-5" d="M3406,637.53c-89.19,1.43-177.77,42.82-263.42,82.85-83.87,39.2-170.59,79.73-255.78,81.09s-170.63-36.4-253.31-72.91c-84.53-37.33-171.94-75.93-261.19-74.51s-177.76,42.82-263.41,82.85C2025,776.1,1938.26,816.63,1853.06,818s-170.63-36.4-253.3-72.91c-84.54-37.33-172-75.93-261.19-74.51s-177.77,42.82-263.42,82.85c-83.87,39.2-170.58,79.73-255.78,81.09s-170.63-36.39-253.31-72.9c-84.53-37.34-171.94-75.94-261.19-74.51S127.11,729.92,41.46,770C-42.41,809.14-129.13,849.67-214.32,851S-385,814.64-467.64,778.12c-84.53-37.33-171.94-75.93-261.18-74.5s-177.76,42.82-263.42,82.85c-83.86,39.19-170.59,79.72-255.78,81.09s-170.63-36.4-253.31-72.91c-84.53-37.33-171.94-75.94-261.19-74.51l.3,19.76c85.14-1.36,170.64,36.4,253.32,72.91,84.53,37.33,171.94,75.93,261.18,74.51S-1070,844.5-984.3,804.46c83.86-39.19,170.59-79.72,255.78-81.08s170.63,36.39,253.31,72.9c84.53,37.34,171.94,75.94,261.19,74.51S-36.26,828,49.39,787.94c83.87-39.19,170.59-79.72,255.78-81.08s170.64,36.39,253.32,72.9C643,817.1,730.43,855.7,819.67,854.27s177.76-42.82,263.42-82.85c83.86-39.2,170.58-79.73,255.78-81.09s170.63,36.4,253.31,72.91c84.53,37.33,171.94,75.93,261.18,74.51s177.77-42.82,263.43-82.85c83.86-39.2,170.58-79.73,255.77-81.09s170.64,36.4,253.31,72.91c84.54,37.33,172,75.93,261.19,74.51s177.76-42.82,263.42-82.86c83.86-39.19,170.58-79.72,255.78-81.08Z" style="fill: rgb(151, 233, 252);"/><path class="cls-5" d="M3416.89,577.52c-89.19,1.43-177.76,42.82-263.42,82.85-83.86,39.2-170.58,79.73-255.78,81.09s-170.63-36.4-253.31-72.91c-84.53-37.33-171.94-75.93-261.18-74.51s-177.77,42.82-263.42,82.85c-83.87,39.2-170.59,79.73-255.78,81.09s-170.63-36.39-253.31-72.91c-84.53-37.33-171.94-75.93-261.19-74.5s-177.76,42.81-263.42,82.85c-83.86,39.19-170.58,79.72-255.78,81.08S659.67,738.11,577,701.6c-84.53-37.34-171.94-75.94-261.18-74.51S138,669.91,52.39,709.94C-31.48,749.13-118.2,789.66-203.39,791S-374,754.63-456.7,718.12c-84.54-37.33-171.94-75.94-261.19-74.51s-177.76,42.82-263.42,82.85c-83.86,39.2-170.58,79.72-255.78,81.09s-170.63-36.4-253.3-72.91c-84.54-37.33-171.95-75.94-261.19-74.51l.3,19.76c85.14-1.36,170.63,36.4,253.31,72.91,84.53,37.33,171.94,75.93,261.18,74.51s177.77-42.82,263.42-82.86c83.87-39.19,170.59-79.72,255.78-81.08S-547,699.76-464.28,736.28c84.53,37.33,172,75.93,261.19,74.5S-25.33,768,60.33,727.93c83.86-39.19,170.58-79.72,255.78-81.08s170.63,36.39,253.31,72.9c84.53,37.34,171.94,75.94,261.19,74.51s177.76-42.82,263.41-82.85c83.87-39.2,170.59-79.72,255.78-81.08s170.64,36.39,253.31,72.9c84.54,37.33,171.94,75.94,261.19,74.51s177.76-42.82,263.42-82.85c83.87-39.2,170.58-79.73,255.78-81.09s170.63,36.4,253.31,72.91c84.53,37.33,171.94,75.93,261.18,74.51s177.77-42.82,263.42-82.85c83.87-39.2,170.59-79.73,255.78-81.09Z" style="fill: rgb(151, 233, 252);"/><path class="cls-5" d="M3427.82,517.51c-89.19,1.43-177.76,42.82-263.41,82.85-83.87,39.2-170.59,79.73-255.78,81.09s-170.64-36.4-253.32-72.91c-84.53-37.33-171.94-75.93-261.18-74.51s-177.76,42.83-263.42,82.86c-83.86,39.19-170.58,79.72-255.78,81.08s-170.63-36.39-253.31-72.91c-84.53-37.33-171.94-75.93-261.19-74.5S1182.67,593.38,1097,633.41c-83.87,39.19-170.59,79.72-255.78,81.08S670.6,678.1,587.93,641.59C503.39,604.25,416,565.65,326.74,567.08S149,609.9,63.32,649.93c-83.86,39.2-170.58,79.73-255.78,81.09s-170.63-36.4-253.31-72.91c-84.53-37.33-171.94-75.93-261.18-74.51s-177.77,42.82-263.42,82.85c-83.87,39.2-170.59,79.73-255.78,81.09s-170.63-36.4-253.31-72.91c-84.53-37.33-172-75.93-261.19-74.51l.3,19.76c85.14-1.36,170.64,36.4,253.31,72.91,84.54,37.33,171.94,75.93,261.19,74.51s177.76-42.82,263.42-82.85c83.86-39.2,170.58-79.73,255.78-81.09s170.63,36.39,253.3,72.91c84.54,37.33,172,75.93,261.19,74.5S-14.39,708,71.26,667.92C155.13,628.73,241.85,588.2,327,586.84s170.63,36.4,253.31,72.91c84.54,37.33,171.95,75.93,261.19,74.5S1019.3,691.43,1105,651.4c83.87-39.19,170.59-79.72,255.78-81.08s170.64,36.39,253.32,72.91c84.53,37.32,171.94,75.93,261.18,74.5s177.77-42.82,263.42-82.85c83.87-39.2,170.59-79.73,255.78-81.09s170.63,36.4,253.31,72.91c84.53,37.33,171.94,75.93,261.19,74.51s177.76-42.82,263.41-82.85c83.87-39.2,170.59-79.73,255.78-81.09Z" style="fill: rgb(151, 233, 252);"/><path class="cls-5" d="M3438.76,457.5c-89.19,1.43-177.77,42.82-263.42,82.86-83.87,39.19-170.59,79.72-255.78,81.08s-170.63-36.4-253.31-72.91c-84.53-37.33-171.94-75.93-261.19-74.5s-177.76,42.82-263.41,82.85c-83.87,39.19-170.59,79.72-255.79,81.08s-170.63-36.39-253.3-72.9c-84.54-37.33-172-75.94-261.19-74.51S1193.6,533.37,1108,573.4c-83.87,39.19-170.58,79.72-255.78,81.09s-170.63-36.4-253.31-72.91c-84.53-37.33-171.94-75.93-261.19-74.51S159.91,549.89,74.26,589.92C-9.61,629.12-96.33,669.65-181.52,671s-170.64-36.4-253.32-72.91c-84.53-37.33-171.94-75.93-261.18-74.51s-177.76,42.82-263.42,82.85c-83.86,39.2-170.59,79.73-255.78,81.09s-170.63-36.39-253.31-72.91c-84.53-37.33-171.94-75.93-261.19-74.5l.3,19.76c85.14-1.37,170.64,36.39,253.32,72.9,84.53,37.33,171.94,75.94,261.18,74.51s177.76-42.82,263.42-82.85c83.86-39.2,170.59-79.73,255.78-81.09s170.63,36.4,253.31,72.91c84.53,37.33,171.94,75.93,261.19,74.51S-3.46,648,82.19,607.92c83.87-39.2,170.59-79.73,255.78-81.09s170.64,36.4,253.32,72.91c84.53,37.33,171.94,75.93,261.18,74.51s177.76-42.83,263.42-82.86c83.86-39.19,170.58-79.72,255.78-81.08S1542.3,546.7,1625,583.22c84.53,37.33,171.94,75.93,261.18,74.5s177.77-42.82,263.43-82.85c83.86-39.19,170.58-79.72,255.77-81.09s170.64,36.4,253.31,72.91c84.54,37.33,171.95,75.94,261.19,74.51s177.76-42.82,263.42-82.85c83.86-39.2,170.58-79.72,255.78-81.09Z" style="fill: rgb(151, 233, 252);"/><path class="cls-5" d="M3449.69,397.5c-89.19,1.42-177.76,42.82-263.42,82.85-83.86,39.19-170.58,79.72-255.78,81.08S2759.86,525,2677.18,488.52c-84.53-37.33-171.94-75.93-261.18-74.5s-177.77,42.82-263.42,82.85C2068.71,536.06,1982,576.59,1896.8,578s-170.63-36.39-253.31-72.9c-84.53-37.33-171.94-75.94-261.19-74.51s-177.76,42.82-263.42,82.85c-83.86,39.2-170.58,79.72-255.77,81.09s-170.64-36.4-253.32-72.91c-84.53-37.33-171.94-75.93-261.18-74.51S170.84,489.88,85.19,529.91C1.32,569.11-85.4,609.64-170.59,611s-170.64-36.4-253.31-72.91c-84.54-37.33-171.94-75.93-261.19-74.51s-177.76,42.82-263.42,82.86c-83.86,39.19-170.58,79.72-255.78,81.08s-170.63-36.39-253.3-72.91c-84.54-37.33-172-75.93-261.19-74.5l.3,19.76c85.14-1.37,170.63,36.39,253.31,72.91,84.53,37.32,171.94,75.93,261.18,74.5s177.77-42.82,263.42-82.85c83.87-39.2,170.59-79.72,255.78-81.09s170.63,36.4,253.31,72.91c84.54,37.33,172,75.94,261.19,74.51S7.47,587.94,93.13,547.91c83.86-39.2,170.58-79.73,255.78-81.09s170.63,36.4,253.31,72.91c84.53,37.33,171.94,75.93,261.19,74.51s177.76-42.82,263.41-82.86c83.87-39.19,170.59-79.72,255.78-81.08s170.64,36.39,253.32,72.91c84.53,37.33,171.93,75.93,261.18,74.5s177.76-42.82,263.42-82.85c83.87-39.19,170.58-79.72,255.78-81.08s170.63,36.39,253.31,72.9c84.53,37.34,171.94,75.94,261.18,74.51s177.77-42.82,263.42-82.85c83.87-39.19,170.59-79.72,255.78-81.08Z" style="fill: rgb(151, 233, 252);"/><path class="cls-5" d="M3460.62,337.49c-89.19,1.42-177.76,42.82-263.41,82.85-83.87,39.19-170.59,79.72-255.78,81.08s-170.64-36.39-253.32-72.9c-84.53-37.34-171.94-75.94-261.18-74.51s-177.76,42.82-263.42,82.85c-83.86,39.19-170.58,79.73-255.78,81.09S1737.1,481.55,1654.42,445c-84.53-37.33-171.94-75.93-261.19-74.51s-177.76,42.82-263.41,82.85C1046,492.58,959.23,533.11,874,534.47s-170.64-36.4-253.31-72.91c-84.54-37.33-172-75.93-261.19-74.51S181.78,429.87,96.12,469.9C12.26,509.1-74.46,549.63-159.66,551S-330.29,514.6-413,478.08c-84.53-37.33-171.94-75.93-261.18-74.5s-177.77,42.81-263.42,82.85c-83.87,39.19-170.59,79.72-255.78,81.08s-170.63-36.39-253.31-72.9c-84.53-37.34-171.95-75.94-261.19-74.51l.3,19.76c85.14-1.36,170.64,36.39,253.32,72.91,84.53,37.33,171.93,75.93,261.18,74.5s177.76-42.82,263.42-82.85c83.86-39.19,170.58-79.72,255.78-81.09s170.63,36.4,253.31,72.91c84.53,37.33,171.94,75.94,261.18,74.51S18.41,527.93,104.06,487.9c83.87-39.2,170.59-79.72,255.78-81.09s170.63,36.4,253.31,72.91c84.54,37.33,172,75.93,261.19,74.51s177.76-42.82,263.41-82.85c83.87-39.2,170.59-79.73,255.78-81.09s170.64,36.4,253.32,72.91c84.53,37.33,171.94,75.93,261.18,74.51s177.77-42.83,263.43-82.86c83.86-39.19,170.58-79.72,255.77-81.08s170.63,36.39,253.31,72.91c84.53,37.33,171.94,75.93,261.19,74.5s177.76-42.82,263.42-82.85c83.86-39.19,170.58-79.72,255.77-81.08Z" style="fill: rgb(151, 233, 252);"/><path class="cls-5" d="M3471.56,277.48c-89.19,1.42-177.77,42.82-263.42,82.85-83.87,39.19-170.59,79.72-255.78,81.08s-170.63-36.39-253.31-72.9c-84.53-37.34-171.94-75.94-261.19-74.51s-177.76,42.82-263.41,82.85c-83.87,39.2-170.59,79.73-255.79,81.09S1748,421.54,1665.36,385c-84.54-37.33-171.95-75.93-261.19-74.51s-177.77,42.82-263.42,82.85c-83.87,39.2-170.58,79.73-255.78,81.09s-170.63-36.4-253.31-72.91c-84.53-37.33-171.94-75.93-261.19-74.5S192.71,369.87,107.06,409.9C23.19,449.09-63.53,489.62-148.72,491S-319.36,454.59-402,418.07c-84.53-37.33-171.94-75.93-261.18-74.5S-841,386.39-926.64,426.42c-83.86,39.19-170.59,79.72-255.78,81.08s-170.63-36.39-253.31-72.9c-84.53-37.33-171.94-75.94-261.19-74.51l.3,19.76c85.14-1.36,170.64,36.39,253.32,72.91,84.53,37.33,171.94,75.93,261.18,74.5s177.76-42.82,263.42-82.85c83.86-39.19,170.59-79.72,255.78-81.08s170.63,36.39,253.31,72.9c84.53,37.33,171.94,75.94,261.19,74.51S29.34,467.92,115,427.89c83.86-39.2,170.58-79.72,255.77-81.08s170.64,36.39,253.32,72.9c84.53,37.34,171.94,75.94,261.18,74.51S1063,451.4,1148.69,411.37c83.86-39.2,170.58-79.73,255.78-81.09s170.63,36.4,253.31,72.91c84.53,37.33,171.94,75.93,261.18,74.51s177.77-42.82,263.43-82.86c83.86-39.19,170.58-79.72,255.77-81.08s170.64,36.4,253.32,72.91c84.53,37.33,171.94,75.93,261.18,74.5s177.76-42.81,263.42-82.85c83.86-39.19,170.58-79.72,255.78-81.08Z" style="fill: rgb(151, 233, 252);"/><path class="cls-5" d="M3482.49,217.47c-89.19,1.43-177.76,42.82-263.42,82.85-83.86,39.2-170.58,79.73-255.78,81.09S2792.66,345,2710,308.5C2625.45,271.17,2538,232.57,2448.8,234S2271,276.81,2185.38,316.84c-83.87,39.2-170.59,79.73-255.78,81.09S1759,361.53,1676.29,325c-84.53-37.33-171.94-75.93-261.19-74.51s-177.76,42.82-263.42,82.85c-83.86,39.2-170.58,79.73-255.77,81.09s-170.64-36.39-253.32-72.91c-84.53-37.33-171.94-75.93-261.18-74.5S203.64,309.86,118,349.89C34.12,389.08-52.6,429.61-137.79,431s-170.64-36.39-253.31-72.91c-84.54-37.33-171.94-75.93-261.19-74.5S-830,326.38-915.71,366.41c-83.86,39.19-170.58,79.72-255.78,81.09s-170.63-36.4-253.3-72.91c-84.54-37.33-172-75.94-261.19-74.51l.3,19.76c85.14-1.36,170.63,36.39,253.31,72.91,84.53,37.33,171.94,75.93,261.18,74.51s177.77-42.82,263.42-82.86c83.87-39.19,170.59-79.72,255.78-81.08s170.63,36.39,253.31,72.9c84.54,37.34,172,75.94,261.19,74.51s177.76-42.82,263.42-82.85c83.86-39.19,170.58-79.72,255.78-81.08S552.34,323.19,635,359.7C719.55,397,807,435.64,896.21,434.21s177.76-42.82,263.41-82.85c83.87-39.2,170.59-79.73,255.78-81.09s170.64,36.4,253.32,72.91c84.53,37.33,171.94,75.93,261.18,74.51s177.76-42.82,263.42-82.85c83.87-39.2,170.58-79.73,255.78-81.09s170.63,36.4,253.31,72.91c84.53,37.33,171.94,75.93,261.18,74.51s177.77-42.82,263.42-82.86c83.87-39.19,170.59-79.72,255.78-81.08Z" style="fill: rgb(151, 233, 252);"/><path class="cls-5" d="M3493.42,157.46c-89.19,1.43-177.76,42.82-263.41,82.85-83.87,39.2-170.59,79.73-255.78,81.09s-170.64-36.4-253.32-72.91C2636.38,211.16,2549,172.56,2459.73,174S2282,216.8,2196.31,256.83c-83.86,39.2-170.58,79.73-255.78,81.09S1769.9,301.53,1687.22,265c-84.53-37.33-171.94-75.93-261.19-74.5s-177.76,42.81-263.41,82.85c-83.87,39.19-170.59,79.72-255.78,81.08s-170.64-36.39-253.31-72.9C569,244.2,481.58,205.6,392.34,207s-177.76,42.82-263.42,82.85C45.06,329.07-41.66,369.6-126.86,371s-170.63-36.39-253.31-72.91c-84.53-37.32-171.94-75.93-261.18-74.5s-177.77,42.82-263.42,82.85c-83.87,39.2-170.59,79.72-255.78,81.09s-170.63-36.4-253.31-72.91c-84.53-37.33-172-75.94-261.19-74.51l.3,19.76c85.14-1.36,170.64,36.4,253.32,72.91,84.53,37.33,171.94,75.93,261.18,74.51s177.76-42.82,263.42-82.86C-813,285.2-726.25,244.67-641,243.31s170.63,36.39,253.31,72.91c84.53,37.33,171.94,75.93,261.18,74.5S51.21,347.9,136.86,307.87c83.87-39.19,170.59-79.72,255.78-81.08S563.27,263.18,646,299.69C730.49,337,817.9,375.63,907.14,374.2s177.76-42.82,263.41-82.85c83.87-39.2,170.59-79.72,255.78-81.08s170.64,36.39,253.32,72.9c84.53,37.33,171.94,75.94,261.18,74.51s177.77-42.82,263.43-82.85c83.86-39.2,170.58-79.73,255.77-81.09s170.63,36.4,253.31,72.91c84.53,37.33,171.94,75.93,261.19,74.51s177.76-42.82,263.42-82.85c83.86-39.2,170.58-79.73,255.77-81.09Z" style="fill: rgb(151, 233, 252);"/><path class="cls-5" d="M3504.36,97.45c-89.19,1.43-177.77,42.82-263.42,82.85-83.87,39.2-170.59,79.73-255.78,81.09s-170.63-36.4-253.31-72.91c-84.53-37.33-171.94-75.93-261.19-74.51s-177.76,42.83-263.41,82.86c-83.87,39.19-170.59,79.72-255.79,81.08s-170.63-36.39-253.3-72.91c-84.54-37.33-172-75.93-261.19-74.5s-177.77,42.82-263.42,82.85c-83.87,39.19-170.58,79.72-255.78,81.08S747.14,258,664.46,221.53C579.93,184.19,492.52,145.59,403.27,147s-177.76,42.82-263.41,82.85C56,269.07-30.73,309.6-115.92,311s-170.64-36.4-253.32-72.91c-84.53-37.33-171.94-75.94-261.18-74.51s-177.76,42.82-263.42,82.85c-83.86,39.2-170.58,79.73-255.78,81.09s-170.63-36.4-253.31-72.91c-84.53-37.33-171.94-75.93-261.19-74.51l.3,19.76c85.14-1.36,170.64,36.4,253.32,72.91,84.53,37.33,171.94,75.93,261.18,74.51s177.76-42.82,263.42-82.85c83.86-39.2,170.59-79.73,255.78-81.09s170.63,36.39,253.31,72.91c84.53,37.33,171.94,75.93,261.19,74.5S62.14,287.9,147.8,247.86c83.86-39.19,170.58-79.72,255.77-81.08s170.64,36.4,253.32,72.91c84.53,37.33,171.94,75.93,261.18,74.5s177.76-42.82,263.42-82.85c83.86-39.19,170.58-79.72,255.78-81.08s170.63,36.39,253.31,72.91c84.53,37.32,171.94,75.93,261.18,74.5s177.77-42.82,263.43-82.85c83.86-39.2,170.58-79.73,255.77-81.09s170.64,36.4,253.32,72.91c84.53,37.33,171.94,75.93,261.18,74.51s177.76-42.82,263.42-82.85c83.86-39.2,170.58-79.73,255.78-81.09Z" style="fill: rgb(151, 233, 252);"/><path class="cls-5" d="M3515.29,37.44c-89.19,1.43-177.76,42.82-263.42,82.86C3168,159.49,3081.29,200,2996.09,201.38s-170.63-36.4-253.31-72.91C2658.25,91.14,2570.84,52.54,2481.6,54s-177.76,42.82-263.42,82.85c-83.87,39.19-170.59,79.72-255.78,81.08s-170.63-36.39-253.31-72.9c-84.53-37.34-171.94-75.94-261.19-74.51s-177.76,42.82-263.42,82.85c-83.86,39.19-170.58,79.72-255.77,81.09S758.07,198,675.39,161.52C590.86,124.19,503.45,85.59,414.21,87s-177.77,42.82-263.42,82.85C66.92,209.06-19.8,249.59-105,251S-275.63,214.55-358.3,178c-84.54-37.33-171.94-75.93-261.19-74.51s-177.76,42.82-263.42,82.85c-83.86,39.2-170.58,79.73-255.78,81.09s-170.63-36.39-253.3-72.91c-84.54-37.33-172-75.93-261.19-74.5l.3,19.76c85.14-1.37,170.63,36.39,253.31,72.9,84.53,37.33,171.94,75.94,261.18,74.51S-960.62,244.41-875,204.38c83.87-39.2,170.59-79.73,255.78-81.09s170.64,36.4,253.31,72.91c84.54,37.33,172,75.93,261.19,74.51s177.76-42.82,263.42-82.85c83.86-39.2,170.58-79.73,255.78-81.09s170.63,36.4,253.31,72.91C752.35,217,839.76,255.61,929,254.19s177.76-42.83,263.41-82.86c83.87-39.19,170.59-79.72,255.78-81.08s170.64,36.39,253.32,72.91c84.53,37.33,171.94,75.93,261.18,74.5s177.76-42.82,263.42-82.85C2310,115.62,2396.7,75.09,2481.9,73.72s170.63,36.4,253.31,72.91c84.53,37.33,171.94,75.94,261.18,74.51s177.77-42.82,263.42-82.85c83.87-39.2,170.59-79.72,255.78-81.09Z" style="fill: rgb(151, 233, 252);"/><path class="cls-5" d="M3526.22-22.56c-89.19,1.42-177.76,42.81-263.41,82.85C3178.94,99.48,3092.22,140,3007,141.37S2836.39,105,2753.71,68.46C2669.18,31.13,2581.77-7.47,2492.53-6s-177.76,42.82-263.42,82.85c-83.86,39.19-170.58,79.72-255.78,81.08S1802.7,121.5,1720,85c-84.53-37.33-171.94-75.94-261.19-74.51S1281.07,53.3,1195.42,93.33c-83.87,39.2-170.59,79.72-255.78,81.09S769,138,686.33,101.51C601.79,64.18,514.38,25.58,425.14,27S247.38,69.82,161.72,109.85C77.86,149.05-8.86,189.58-94.06,190.94S-264.69,154.54-347.37,118C-431.9,80.7-519.31,42.1-608.55,43.52S-786.32,86.34-872,126.38c-83.87,39.19-170.59,79.72-255.78,81.08s-170.63-36.39-253.31-72.91c-84.53-37.33-172-75.93-261.19-74.5l.3,19.76c85.14-1.37,170.64,36.39,253.32,72.91,84.53,37.32,171.94,75.93,261.18,74.5S-949.69,184.4-864,144.37c83.86-39.2,170.58-79.72,255.78-81.09s170.63,36.4,253.31,72.91C-270.41,173.52-183,212.13-93.76,210.7S84,167.88,169.66,127.85c83.87-39.2,170.59-79.73,255.78-81.09s170.64,36.4,253.31,72.91c84.54,37.33,172,75.93,261.19,74.51s177.76-42.82,263.41-82.86c83.87-39.19,170.59-79.72,255.78-81.08s170.64,36.39,253.32,72.91c84.53,37.33,171.94,75.93,261.18,74.5s177.77-42.82,263.43-82.85c83.86-39.19,170.58-79.72,255.77-81.08s170.63,36.39,253.31,72.9c84.53,37.34,171.94,75.94,261.19,74.51s177.76-42.82,263.42-82.85c83.86-39.19,170.58-79.72,255.77-81.08Z" style="fill: rgb(151, 233, 252);"/><path class="cls-5" d="M3537.16-82.57C3448-81.15,3359.39-39.75,3273.74.28,3189.87,39.47,3103.15,80,3018,81.36S2847.33,45,2764.65,8.46C2680.12-28.88,2592.71-67.48,2503.46-66S2325.7-23.23,2240.05,16.8C2156.18,56,2069.46,96.53,1984.26,97.89S1813.63,61.49,1731,25c-84.54-37.33-172-75.93-261.19-74.51S1292-6.71,1206.35,33.32c-83.87,39.2-170.58,79.73-255.78,81.09S779.94,78,697.26,41.5C612.73,4.17,525.32-34.43,436.07-33S258.31,9.81,172.66,49.84C88.79,89,2.07,129.57-83.12,130.93S-253.76,94.54-336.44,58C-421,20.69-508.38-17.91-597.62-16.48S-775.38,26.33-861,66.37c-83.86,39.19-170.58,79.72-255.78,81.08s-170.63-36.39-253.31-72.9C-1454.66,37.21-1542.07-1.39-1631.32,0l.3,19.76c85.14-1.36,170.64,36.39,253.32,72.91,84.53,37.33,171.94,75.93,261.18,74.5s177.76-42.82,263.42-82.85C-769.24,45.17-682.51,4.64-597.32,3.27S-426.69,39.67-344,76.18c84.53,37.33,171.94,75.94,261.19,74.51S94.94,107.87,180.6,67.84c83.86-39.2,170.58-79.72,255.77-81.09S607,23.15,689.69,59.66C774.22,97,861.63,135.59,950.87,134.17s177.76-42.82,263.42-82.85c83.86-39.2,170.58-79.73,255.78-81.09S1640.7,6.62,1723.38,43.14c84.53,37.33,171.94,75.93,261.18,74.5S2162.33,74.82,2248,34.79c83.86-39.19,170.58-79.72,255.77-81.08S2674.4-9.9,2757.08,26.62c84.53,37.33,171.94,75.93,261.18,74.5S3196,58.3,3281.68,18.27c83.86-39.19,170.58-79.72,255.78-81.08Z" style="fill: rgb(151, 233, 252);"/><path class="cls-5" d="M3548.09-142.58c-89.19,1.42-177.76,42.82-263.42,82.85C3200.81-20.54,3114.09,20,3028.89,21.35S2858.26-15,2775.58-51.55c-84.53-37.34-171.94-75.94-261.18-74.51S2336.64-83.24,2251-43.21C2167.11-4,2080.39,36.52,1995.2,37.88S1824.57,1.48,1741.89-35C1657.36-72.36,1570-111,1480.7-109.54s-177.76,42.82-263.42,82.85C1133.42,12.51,1046.7,53,961.51,54.4S790.87,18,708.19-18.51C623.66-55.84,536.25-94.44,447-93S269.24-50.2,183.59-10.16C99.72,29,13,69.56-72.19,70.92S-242.82,34.53-325.5-2C-410-39.32-497.44-77.92-586.69-76.49S-764.45-33.67-850.11,6.36C-934,45.55-1020.69,86.08-1105.89,87.44s-170.63-36.39-253.3-72.9c-84.54-37.33-172-75.94-261.19-74.51l.3,19.76c85.14-1.36,170.63,36.39,253.31,72.91,84.53,37.33,171.94,75.93,261.18,74.5s177.77-42.82,263.42-82.85c83.87-39.19,170.59-79.72,255.78-81.08s170.64,36.39,253.31,72.9c84.54,37.33,172,75.94,261.19,74.51S105.87,47.86,191.53,7.83c83.86-39.2,170.58-79.72,255.78-81.08S617.94-36.86,700.62-.35C785.15,37,872.56,75.59,961.81,74.16s177.76-42.82,263.41-82.85c83.87-39.2,170.59-79.73,255.78-81.09s170.64,36.4,253.32,72.91c84.53,37.33,171.94,75.93,261.18,74.51s177.76-42.83,263.42-82.86c83.87-39.19,170.58-79.72,255.78-81.08S2685.33-69.9,2768-33.39c84.53,37.33,171.94,75.93,261.18,74.5S3207-1.7,3292.61-41.74c83.87-39.19,170.59-79.72,255.78-81.08Z" style="fill: rgb(151, 233, 252);"/><path class="cls-5" d="M3559-202.59c-89.19,1.43-177.76,42.82-263.41,82.85C3211.74-80.54,3125-40,3039.83-38.65S2869.19-75,2786.51-111.56c-84.53-37.33-171.94-75.94-261.18-74.51s-177.76,42.82-263.42,82.85c-83.86,39.2-170.58,79.73-255.78,81.09S1835.5-58.53,1752.82-95c-84.53-37.33-171.94-75.93-261.19-74.51s-177.76,42.82-263.41,82.85C1144.35-47.5,1057.63-7,972.44-5.61S801.81-42,719.13-78.52c-84.54-37.33-172-75.93-261.19-74.5S280.18-110.2,194.52-70.17C110.66-31,23.94,9.55-61.26,10.91S-231.89-25.48-314.57-62c-84.53-37.33-171.94-75.93-261.18-74.5S-753.52-93.68-839.17-53.65C-923-14.46-1009.76,26.07-1094.95,27.44S-1265.58-9-1348.26-45.47c-84.53-37.33-172-75.94-261.19-74.51l.3,19.76c85.14-1.36,170.64,36.39,253.32,72.91,84.53,37.33,171.94,75.93,261.18,74.5S-916.89,4.38-831.23-35.66c83.86-39.19,170.58-79.72,255.78-81.08s170.63,36.39,253.31,72.9C-237.61-6.5-150.2,32.1-61,30.67S116.81-12.15,202.46-52.18c83.87-39.19,170.59-79.72,255.78-81.08s170.64,36.39,253.31,72.9C796.09-23,883.5,15.58,972.74,14.15S1150.5-28.67,1236.15-68.7c83.87-39.2,170.59-79.73,255.78-81.09s170.64,36.4,253.32,72.91c84.53,37.33,171.94,75.93,261.18,74.51s177.77-42.82,263.43-82.85c83.86-39.2,170.58-79.73,255.77-81.09s170.63,36.4,253.31,72.91c84.53,37.33,171.94,75.93,261.19,74.51s177.76-42.82,263.42-82.86c83.86-39.19,170.58-79.72,255.77-81.08Z" style="fill: rgb(151, 233, 252);"/></g><path class="cls-6" d="M734.61,545.65l-.16,0c-81.3-15.94-107.37-83.81-114.81-112.24a.84.84,0,0,1,.55-1c28.48-9.28,56.86-14,84.36-14,24.63,0,39.48,4,39.63,4a.85.85,0,0,1,.59.59c.13.5,13.34,50.85-9.36,122.08A.83.83,0,0,1,734.61,545.65ZM621.46,433.72C629.06,462.2,655,528,734,543.84c21.08-66.7,10.5-114.73,9.23-120-2.69-.65-16.76-3.81-38.72-3.81C677.47,420.07,649.52,424.66,621.46,433.72Z" style="fill: rgb(249, 237, 50);" transform="matrix(1, 0, 0, 1, 2.842170943040401e-14, 7.105427357601002e-15)"/><path class="cls-6" d="M429.15,841.42a.85.85,0,0,1-.26,0c-60.88-20-90.89-72.81-103.36-102.5a.87.87,0,0,1,0-.69c44.79-91.69,96.27-165.2,153-218.51,44.53-41.81,92.17-71.18,141.61-87.29a.84.84,0,0,1,.66.06.82.82,0,0,1,.41.52c7.36,28.14,33.14,95.27,113.52,111a.83.83,0,0,1,.55.4.79.79,0,0,1,.08.67c-25.28,79.28-98.88,195-305.89,296.27A.78.78,0,0,1,429.15,841.42ZM327.22,738.57c12.43,29.44,42.07,81.3,101.87,101.11,205.47-100.57,279-215.33,304.44-294.23-79.77-16.11-106-82.39-113.66-111.21C541.42,460.07,427.28,533.89,327.22,738.57Z" style="fill: rgb(249, 237, 50);" transform="matrix(1, 0, 0, 1, 2.842170943040401e-14, 7.105427357601002e-15)"/><path class="cls-6" d="M407,852a.78.78,0,0,1-.22,0c-.37-.1-37.4-10.2-60.71-30.82-20.68-23.37-30.78-60.41-30.88-60.78a.78.78,0,0,1,.05-.56c3.08-6.66,6.46-13.74,10.31-21.63a.93.93,0,0,1,.78-.47.82.82,0,0,1,.74.51c12.36,29.43,42.09,81.75,102.34,101.57a.83.83,0,0,1,.58.73.84.84,0,0,1-.47.81c-8.33,4.07-15.37,7.44-22.17,10.59A.85.85,0,0,1,407,852Zm-90.12-91.77c1,3.51,11,37.82,30.38,59.74,21.85,19.32,56.15,29.31,59.66,30.3,6.2-2.87,12.62-5.93,20-9.55C368.5,820.62,339,770.2,326.25,740.56,322.79,747.68,319.71,754.13,316.88,760.23Z" style="fill: rgb(249, 237, 50);" transform="matrix(1, 0, 0, 1, 2.842170943040401e-14, 7.105427357601002e-15)"/><path class="cls-6" d="M572.32,661.61a66.8,66.8,0,1,1,47.21-19.56A66.35,66.35,0,0,1,572.32,661.61Zm0-131.88a65.09,65.09,0,1,0,46,19.07A64.68,64.68,0,0,0,572.32,529.73Z" style="fill: rgb(249, 237, 50);" transform="matrix(1, 0, 0, 1, 2.842170943040401e-14, 7.105427357601002e-15)"/><path class="cls-6" d="M572.32,648.23a53.4,53.4,0,1,1,37.75-15.64A53,53,0,0,1,572.32,648.23Zm0-105.11a51.71,51.71,0,1,0,36.57,15.14A51.39,51.39,0,0,0,572.33,543.12Z" style="fill: rgb(249, 237, 50);" transform="matrix(1, 0, 0, 1, 2.842170943040401e-14, 7.105427357601002e-15)"/><path class="cls-6" d="M300.68,867.32a.86.86,0,0,1-.6-.25.83.83,0,0,1-.14-1c66.92-122.25,180.32-180.86,181.45-181.44a.83.83,0,0,1,1.13,1.12c-.58,1.14-59.2,114.53-181.44,181.46A1,1,0,0,1,300.68,867.32ZM479.73,687.43c-16.7,9.15-115.58,66.72-176.92,176.92C413,803,470.58,704.12,479.73,687.43Z" style="fill: rgb(249, 237, 50);" transform="matrix(1, 0, 0, 1, 2.842170943040401e-14, 7.105427357601002e-15)"/><path class="cls-6" d="M245.67,781.24h0a4.47,4.47,0,0,1-3.77-1.7c-2.15-2.82-.71-8.17-.65-8.4a1.15,1.15,0,0,1,.12-.25l61.26-88.08c14.75-19.71,22.49-22.6,22.81-22.72l78.44-22.54a.83.83,0,0,1,.93.33.84.84,0,0,1,0,1c-41.7,53.93-67.23,109.2-67.48,109.76a.87.87,0,0,1-.48.44l-86.5,31.08A12.75,12.75,0,0,1,245.67,781.24Zm-2.84-9.52c-.36,1.43-.92,5.07.4,6.81a2.85,2.85,0,0,0,2.44,1h0a11.25,11.25,0,0,0,4.05-1l86.21-31c2.13-4.56,26.72-56.46,66-107.74L326,661.69s-7.64,3-22,22.1Z" style="fill: rgb(249, 237, 50);" transform="matrix(1, 0, 0, 1, 2.842170943040401e-14, 7.105427357601002e-15)"/><path class="cls-6" d="M392,926.44c-2.54,0-4.32-.73-5.28-2.17-1.12-1.67-1-4.19.35-7.48l31.07-86.45a.87.87,0,0,1,.44-.48c.55-.25,55.84-25.79,109.76-67.48a.83.83,0,0,1,1.31.9l-22.53,78.39c-.13.37-3,8.1-22.71,22.84l-88.1,61.27a.68.68,0,0,1-.26.12A16.4,16.4,0,0,1,392,926.44Zm27.6-95.21-31,86.17c-1.12,2.73-1.3,4.77-.52,5.93s2.55,1.43,3.89,1.43a15.58,15.58,0,0,0,3.48-.44l87.95-61.17c19.12-14.31,22.07-21.92,22.09-22l21.82-75.89C476,804.51,424.12,829.1,419.56,831.23Z" style="fill: rgb(249, 237, 50);" transform="matrix(1, 0, 0, 1, 2.842170943040401e-14, 7.105427357601002e-15)"/><path class="cls-7" d="M638.32,865h0c-10.28,0-22.92-1.38-24.76-7.9-1.75-6.18,7.19-14.83,25.17-24.37a.83.83,0,0,1,.81,0,.82.82,0,0,1,.42.68,71.91,71.91,0,0,0,8.27,30,.84.84,0,0,1-.68,1.23C644.28,864.91,641.18,865,638.32,865Zm0-30.18c-16.22,8.75-24.66,16.68-23.2,21.83,1.21,4.3,9.44,6.67,23.15,6.67h0c2.45,0,5.08-.08,7.84-.23a73.31,73.31,0,0,1-7.79-28.27Z" style="fill: rgb(255, 8, 149);" transform="matrix(1, 0, 0, 1, 2.842170943040401e-14, 7.105427357601002e-15)"/><path class="cls-7" d="M624.12,874.4c-19.71,0-31.16-3.69-33.14-10.65-2.83-10,14.62-24.47,47.9-39.65a.83.83,0,0,1,.82.07.85.85,0,0,1,.36.75c0,.57-.08,1.13-.1,1.71a.82.82,0,0,1-.49.72c-29.11,13.31-45.8,26.51-43.55,34.44,1.52,5.38,11.65,8.35,28.53,8.35a219.67,219.67,0,0,0,26.06-1.78.84.84,0,0,1,.8.38c.53.81,1.07,1.6,1.62,2.39a.85.85,0,0,1-.58,1.32A234.32,234.32,0,0,1,624.12,874.4Zm-21-27.69c-8,6.44-11.74,12.19-10.5,16.58,1.72,6.09,12.92,9.43,31.53,9.43A227.14,227.14,0,0,0,650.77,871l-.58-.87a219,219,0,0,1-25.74,1.73c-18,0-28.37-3.31-30.14-9.57C593.08,857.91,596.16,852.61,603.09,846.71Z" style="fill: rgb(255, 8, 149);" transform="matrix(1, 0, 0, 1, 2.842170943040401e-14, 7.105427357601002e-15)"/><path class="cls-7" d="M652.25,872.45a.83.83,0,0,1-.68-.35c-.57-.81-1.12-1.62-1.66-2.45a.84.84,0,0,1-.06-.81.81.81,0,0,1,.66-.48c20.37-2.48,43.75-7.36,67.61-14.11s46.36-14.86,65-23.42a.84.84,0,0,1,1.18.78c0,1-.07,2-.12,2.95a.84.84,0,0,1-.49.71,490.67,490.67,0,0,1-131.33,37.18Zm-.2-2.59.6.86A489.43,489.43,0,0,0,782.53,834c0-.35,0-.7.05-1.05a497,497,0,0,1-130.53,37Z" style="fill: rgb(255, 8, 149);" transform="matrix(1, 0, 0, 1, 2.842170943040401e-14, 7.105427357601002e-15)"/><path class="cls-7" d="M711.23,903h0a73.08,73.08,0,0,1-54.9-24.89.85.85,0,0,1-.16-.84.87.87,0,0,1,.66-.54,597.27,597.27,0,0,0,125.3-35.47.87.87,0,0,1,.84.12.85.85,0,0,1,.31.8,73.1,73.1,0,0,1-72,60.82ZM658.6,878.18a71.42,71.42,0,0,0,52.63,23.19h0a71.45,71.45,0,0,0,70.13-57.94A601.52,601.52,0,0,1,658.6,878.18Z" style="fill: rgb(255, 8, 149);" transform="matrix(1, 0, 0, 1, 2.842170943040401e-14, 7.105427357601002e-15)"/><path class="cls-7" d="M647.49,864.71a.82.82,0,0,1-.73-.45,73.32,73.32,0,0,1-8.47-30.73c-.11-2.32-.12-4.67,0-7,0-.58.06-1.17.1-1.75a73.16,73.16,0,0,1,53-65.09,73.1,73.1,0,0,1,79.23,27.67l1,1.43c1.34,2,2.56,4,3.65,6a73.7,73.7,0,0,1,8.91,30.61.85.85,0,0,1-.44.8c-17.15,9.13-40.71,18.15-66.36,25.41s-50.44,11.92-69.81,13.13Zm63.8-106.1a71.43,71.43,0,0,0-70.11,57.85,70.71,70.71,0,0,0-1.12,8.46c0,.57-.08,1.13-.1,1.71-.11,2.26-.11,4.55,0,6.81A71.87,71.87,0,0,0,648,863c19.18-1.25,43.63-5.87,68.93-13s48.54-16,65.54-25a72,72,0,0,0-8.67-29.38c-1.06-1.93-2.26-3.89-3.56-5.81l-1-1.4a71.61,71.61,0,0,0-58-29.74Z" style="fill: rgb(255, 8, 149);" transform="matrix(1, 0, 0, 1, 2.842170943040401e-14, 7.105427357601002e-15)"/><path class="cls-7" d="M607.57,883h0c-24,0-37.94-4.48-40.34-13-3.85-13.59,24-34.48,72.81-54.51a.82.82,0,0,1,.85.13.82.82,0,0,1,.29.8,70.71,70.71,0,0,0-1.12,8.46.84.84,0,0,1-.49.7c-31.49,14.36-49.49,28.8-47,37.67,1.72,6.09,12.92,9.43,31.53,9.43a232.8,232.8,0,0,0,28-1.93,489.13,489.13,0,0,0,130.84-37c31.37-14.33,49.29-28.73,46.78-37.59-1.72-6.08-12.91-9.43-31.51-9.43a231.17,231.17,0,0,0-28.24,2,.83.83,0,0,1-.78-.34,70.1,70.1,0,0,0-5.39-6.62.86.86,0,0,1-.17-.84.83.83,0,0,1,.65-.55c18.79-3.07,36.16-4.69,50.24-4.69,24,0,37.94,4.48,40.34,13,3.83,13.52-23.82,34.3-72.14,54.24a570.4,570.4,0,0,1-61.87,21.22,567.8,567.8,0,0,1-63.81,14.35C638.33,881.46,621.67,883,607.57,883Zm31.69-65.34c-46.33,19.21-73.93,39.54-70.42,51.93,2.14,7.56,15.9,11.73,38.73,11.73,13.81,0,30.84-1.57,49.26-4.55a597.27,597.27,0,0,0,125.3-35.47c46.76-19.29,74.69-39.79,71.17-52.23-2.14-7.57-15.9-11.74-38.73-11.74-13.61,0-30.34,1.53-48.45,4.43,1.47,1.67,2.87,3.42,4.19,5.22a231,231,0,0,1,28-1.92c19.7,0,31.15,3.68,33.12,10.65,2.84,10-14.55,24.42-47.7,39.56a490.67,490.67,0,0,1-131.33,37.18,234.18,234.18,0,0,1-28.23,1.95c-19.71,0-31.16-3.69-33.14-10.65-2.82-10,14.46-24.34,47.45-39.45C638.6,822.08,638.88,819.85,639.26,817.66Z" style="fill: rgb(255, 8, 149);" transform="matrix(1, 0, 0, 1, 2.842170943040401e-14, 7.105427357601002e-15)"/><path class="cls-7" d="M624.45,871.81c-12.52,0-27.9-1.66-30.14-9.57-2.56-9,13.64-22.31,44.47-36.41a.84.84,0,0,1,1.18.8c-.11,2.26-.11,4.55,0,6.81a.81.81,0,0,1-.44.78c-17,9-25.85,17.18-24.35,22.45,1.21,4.3,9.44,6.67,23.15,6.67,2.82,0,5.89-.1,9.12-.3,19.26-1.2,43.93-5.84,69.47-13.07s49-16.21,66-25.28c16.83-9,25.63-17.1,24.15-22.35-1.22-4.3-9.45-6.67-23.17-6.67-2.89,0-6,.11-9.34.33a.87.87,0,0,1-.79-.44c-1.06-1.93-2.26-3.89-3.56-5.81a.84.84,0,0,1,.59-1.3,223,223,0,0,1,26.81-1.85c12.51,0,27.91,1.66,30.14,9.56,2.55,9-13.47,22.18-44,36.19-18.71,8.59-41.27,16.72-65.23,23.51S671.17,867.54,650.71,870A220.86,220.86,0,0,1,624.45,871.81Zm13.78-43.89C609.89,841,593.7,854,595.92,861.79c1.52,5.38,11.65,8.35,28.53,8.35a219.67,219.67,0,0,0,26.06-1.78c20.37-2.48,43.75-7.35,67.61-14.11s46.36-14.86,65-23.42c28.78-13.23,45.27-26.34,43-34.21-1.52-5.38-11.66-8.35-28.53-8.35A218.65,218.65,0,0,0,772.36,790q1.41,2.16,2.63,4.34c3.15-.19,6.15-.29,8.92-.29,10.29,0,22.94,1.37,24.78,7.89,2.23,7.89-12.35,17.56-25,24.28-17.15,9.13-40.71,18.15-66.36,25.41s-50.44,11.92-69.81,13.13c-3.27.2-6.37.31-9.23.31-10.28,0-22.92-1.37-24.76-7.9-1.74-6.12,7-14.68,24.71-24.12C638.2,831.31,638.18,829.61,638.23,827.92Z" style="fill: rgb(255, 8, 149);" transform="matrix(1, 0, 0, 1, 2.842170943040401e-14, 7.105427357601002e-15)"/><path class="cls-8" d="M436.35,404.46H195.07a68.38,68.38,0,0,1-68.31-68.31.84.84,0,0,1,.83-.84H503.82a.85.85,0,0,1,.84.84A68.39,68.39,0,0,1,436.35,404.46ZM128.44,337a66.72,66.72,0,0,0,66.63,65.8H436.35A66.73,66.73,0,0,0,503,337Z" style="fill: rgb(16, 255, 232);" transform="matrix(1, 0, 0, 1, 2.842170943040401e-14, 7.105427357601002e-15)"/><path class="cls-8" d="M503.82,337H127.59a.84.84,0,0,1-.83-.84,68.38,68.38,0,0,1,68.31-68.31H436.35a68.39,68.39,0,0,1,68.31,68.31A.85.85,0,0,1,503.82,337Zm-375.38-1.68H503a66.72,66.72,0,0,0-66.63-65.8H195.07A66.71,66.71,0,0,0,128.44,335.31Z" style="fill: rgb(16, 255, 232);" transform="matrix(1, 0, 0, 1, 2.842170943040401e-14, 7.105427357601002e-15)"/><path class="cls-8" d="M398.35,432.37H233.06a.85.85,0,0,1-.84-.84V403.62a.84.84,0,0,1,.84-.83H398.35a.83.83,0,0,1,.84.83v27.91A.84.84,0,0,1,398.35,432.37Zm-164.46-1.68H397.52V404.46H233.89Z" style="fill: rgb(16, 255, 232);" transform="matrix(1, 0, 0, 1, 2.842170943040401e-14, 7.105427357601002e-15)"/><path class="cls-8" d="M416,481H212.08a25.13,25.13,0,0,1,0-50.26H416A25.13,25.13,0,0,1,416,481ZM212.08,432.37a23.46,23.46,0,0,0,0,46.91H416a23.46,23.46,0,0,0,0-46.91Z" style="fill: rgb(16, 255, 232);" transform="matrix(1, 0, 0, 1, 2.842170943040401e-14, 7.105427357601002e-15)"/><path class="cls-8" d="M232.05,473.1a17.28,17.28,0,1,1,17.28-17.28A17.3,17.3,0,0,1,232.05,473.1Zm0-32.88a15.6,15.6,0,1,0,15.61,15.6A15.62,15.62,0,0,0,232.05,440.22Z" style="fill: rgb(16, 255, 232);" transform="matrix(1, 0, 0, 1, 2.842170943040401e-14, 7.105427357601002e-15)"/><path class="cls-8" d="M285,473.1a17.28,17.28,0,1,1,17.28-17.28A17.3,17.3,0,0,1,285,473.1Zm0-32.88a15.6,15.6,0,1,0,15.61,15.6A15.62,15.62,0,0,0,285,440.22Z" style="fill: rgb(16, 255, 232);" transform="matrix(1, 0, 0, 1, 2.842170943040401e-14, 7.105427357601002e-15)"/><path class="cls-8" d="M338,473.1a17.28,17.28,0,1,1,17.27-17.28A17.3,17.3,0,0,1,338,473.1Zm0-32.88a15.6,15.6,0,1,0,15.6,15.6A15.62,15.62,0,0,0,338,440.22Z" style="fill: rgb(16, 255, 232);" transform="matrix(1, 0, 0, 1, 2.842170943040401e-14, 7.105427357601002e-15)"/><path class="cls-8" d="M391,473.1a17.28,17.28,0,1,1,17.27-17.28A17.3,17.3,0,0,1,391,473.1Zm0-32.88a15.6,15.6,0,1,0,15.6,15.6A15.62,15.62,0,0,0,391,440.22Z" style="fill: rgb(16, 255, 232);" transform="matrix(1, 0, 0, 1, 2.842170943040401e-14, 7.105427357601002e-15)"/><path class="cls-8" d="M391,385.86H364.67a.84.84,0,0,1-.84-.84V354.75a.84.84,0,0,1,.84-.84H391a.83.83,0,0,1,.83.84V385A.83.83,0,0,1,391,385.86Zm-25.49-1.67h24.65V355.58H365.51Z" style="fill: rgb(16, 255, 232);" transform="matrix(1, 0, 0, 1, 2.842170943040401e-14, 7.105427357601002e-15)"/><path class="cls-8" d="M451.91,385.86H407.43a.83.83,0,0,1-.83-.84V354.75a.83.83,0,0,1,.83-.84h44.48a.83.83,0,0,1,.84.84V385A.83.83,0,0,1,451.91,385.86Zm-43.64-1.67h42.81V355.58H408.27Z" style="fill: rgb(16, 255, 232);" transform="matrix(1, 0, 0, 1, 2.842170943040401e-14, 7.105427357601002e-15)"/><path class="cls-8" d="M175.82,382.93a.84.84,0,0,1-.84-.84v-33.5a.84.84,0,1,1,1.67,0v33.5A.84.84,0,0,1,175.82,382.93Z" style="fill: rgb(16, 255, 232);" transform="matrix(1, 0, 0, 1, 2.842170943040401e-14, 7.105427357601002e-15)"/><path class="cls-8" d="M194.29,382.93a.85.85,0,0,1-.84-.84v-33.5a.84.84,0,0,1,1.68,0v33.5A.85.85,0,0,1,194.29,382.93Z" style="fill: rgb(16, 255, 232);" transform="matrix(1, 0, 0, 1, 2.842170943040401e-14, 7.105427357601002e-15)"/><path class="cls-8" d="M212.77,382.93a.84.84,0,0,1-.84-.84v-33.5a.84.84,0,1,1,1.67,0v33.5A.84.84,0,0,1,212.77,382.93Z" style="fill: rgb(16, 255, 232);" transform="matrix(1, 0, 0, 1, 2.842170943040401e-14, 7.105427357601002e-15)"/><path class="cls-8" d="M404.37,233.18h0a53,53,0,0,1-37.7-15.62,53.52,53.52,0,0,1-8.8-63.84.83.83,0,0,1,.62-.42.8.8,0,0,1,.7.24l71.5,71.5a.8.8,0,0,1,.24.7.83.83,0,0,1-.42.62A53.48,53.48,0,0,1,404.37,233.18ZM358.8,155.51a51.84,51.84,0,0,0,9.05,60.87,51.7,51.7,0,0,0,60.87,9.05Z" style="fill: rgb(16, 255, 232);" transform="matrix(1, 0, 0, 1, 2.842170943040401e-14, 7.105427357601002e-15)"/><path class="cls-8" d="M402.73,199.09a.82.82,0,0,1-.59-.24l-16.76-16.76a.86.86,0,0,1-.22-.81.85.85,0,0,1,.6-.59l22.89-6.14a.84.84,0,0,1,.81.22.86.86,0,0,1,.22.81l-6.14,22.89a.85.85,0,0,1-.59.6A.78.78,0,0,1,402.73,199.09Zm-15.14-17.16,14.71,14.71,5.39-20.09Z" style="fill: rgb(16, 255, 232);" transform="matrix(1, 0, 0, 1, 2.842170943040401e-14, 7.105427357601002e-15)"/><path class="cls-8" d="M414.59,178.57a8.93,8.93,0,1,1,6.31-15.24,8.93,8.93,0,0,1-6.31,15.24Zm0-16.18a7.25,7.25,0,1,0,5.13,2.12A7.2,7.2,0,0,0,414.59,162.39Z" style="fill: rgb(16, 255, 232);" transform="matrix(1, 0, 0, 1, 2.842170943040401e-14, 7.105427357601002e-15)"/><path class="cls-8" d="M354.45,269.51a.83.83,0,0,1-.83-.83V238.91a27.81,27.81,0,0,1,13.24-22.68.84.84,0,0,1,.79,1.48,26,26,0,0,0-12.36,21.23v29.74A.84.84,0,0,1,354.45,269.51Z" style="fill: rgb(16, 255, 232);" transform="matrix(1, 0, 0, 1, 2.842170943040401e-14, 7.105427357601002e-15)"/><path class="cls-8" d="M314,269H204.41a.83.83,0,0,1-.84-.84V236.34a.83.83,0,0,1,.84-.83H314a.83.83,0,0,1,.83.83v31.82A.83.83,0,0,1,314,269Zm-108.8-1.67h108V237.18h-108Z" style="fill: rgb(16, 255, 232);" transform="matrix(1, 0, 0, 1, 2.842170943040401e-14, 7.105427357601002e-15)"/><path class="cls-7" d="M999.89,739.07c-2.23,0-7.26-1.29-15.89-9.93a125.15,125.15,0,0,1-10-11.53l-.12-.12-34.22-14-.07-.26a15.66,15.66,0,0,1,.11-11.62c1.76-3.9,5.36-6.84,10.71-8.73l.14,0,.16-.21c2.28-4.7,22.43-47,26.72-86.77l0-.31-.26-.19c-2-1.41-4.08-2.91-6.13-4.45l-.32-.24-19.83,14.93a16.11,16.11,0,0,1-6.44,1.54,8.18,8.18,0,0,1-6-2.32,6.26,6.26,0,0,1-1.2-1.61l-.23-.5L958.74,581l-.43-.38c-3.83-3.33-7.5-6.76-10.91-10.17C922,545,904,514.21,893.84,478.79l-16.17-28.35-1.07-1.09-1,1a4.8,4.8,0,0,1-6.8-6.79l1-1-2.86-2.86-1,1a4.81,4.81,0,0,1-6.8-6.8l1-1L847,419.79l-.33.14a37.79,37.79,0,0,1-15.1,3c-11.25,0-22.89-4.32-32.78-12.18l-.67-.54,18.28-18.28-15.3-30.49-.43.13a6.93,6.93,0,1,1,4.66-4.65l-.13.43,30.48,15.3L854,354.36l.53.68c11.76,14.79,15.37,33.58,9.19,47.87l-.15.34,13.1,13.1,1-1a4.8,4.8,0,0,1,6.8,0,4.82,4.82,0,0,1,0,6.8l-1,1,2.86,2.85,1-1a4.8,4.8,0,0,1,6.8,0,4.82,4.82,0,0,1,0,6.8l-1,1,1,1L922.47,450c35.51,10.19,66.38,28.23,91.77,53.62,2.73,2.73,5.46,5.61,8.1,8.56l82.73,63.21c.89.91,8.78,9.27,6.9,17.59-1.1,4.86-5.32,8.65-12.55,11.24l-23.54,8.22.12.48c1.29,5,1.84,8,1.9,8.35a15.35,15.35,0,0,1-1,11.6l-.16.25a15.22,15.22,0,0,1-7,1.65,17,17,0,0,1-4.65-.65,204.81,204.81,0,0,1-32.31-9.51l-.19-.08-.32.15c-6.65,5-17.52,18.5-15.67,52.68.07,2,1.52,48.92-15.43,61.47l-.21.11a3.5,3.5,0,0,1-1.08.14ZM978.75,597.42c-4.86,41.6-26.73,85.93-27,86.36l-.17.35-.28,0c-5.2,1.73-8.66,4.45-10.29,8.07a13.9,13.9,0,0,0-.29,9.87l.05.16,34,14,.09.15a125.55,125.55,0,0,0,10.12,11.65c8.57,8.57,13.18,9.5,14.77,9.5l.36,0h0l.14,0c16.16-12.37,14.7-59.6,14.68-60.07-1.72-31.79,7.24-46.36,15.06-53l.68-.58-3.2-1.27-3.49-1.43-3.45-1.47-3.42-1.51-3.39-1.57c-.67-.31-3.36-1.61-3.36-1.61l-3.33-1.65-3.09-1.59-.21-.12c-1.1-.57-2.19-1.16-3.28-1.75l-3.23-1.79-3.21-1.84L991,604.37l-3.14-1.93-1.39-.88-1.71-1.1-3.06-2-2.83-1.91ZM895.39,478.65l.09.3c10.1,34.91,27.93,65.33,53,90.4,3.78,3.78,7.78,7.48,11.89,11,3.51,3,7.14,6,10.79,8.72,2.45,1.86,5,3.69,7.51,5.45a248.3,248.3,0,0,0,50.39,27l3.61,1.4c19.06,7.23,32.17,9.59,32.71,9.69a16.35,16.35,0,0,0,4.4.63,12.81,12.81,0,0,0,5.74-1.27l0,0,.13-.1a14.06,14.06,0,0,0,.71-10.17c-.24-1.29-.91-4.63-2.2-9.54-4.45-16.92-18.52-60.42-52.92-98.83-2.64-2.95-5.37-5.84-8.14-8.6-25.07-25.07-55.48-42.91-90.4-53l-.31-.09Zm153.53,69.88s1.63,2.78,2,3.47l.8,1.41c.39.68,1.9,3.42,1.9,3.42l1.8,3.38,1.72,3.33,1.28,2.57.34.7c.54,1.09,1.06,2.18,1.56,3.25,0,0,1.09,2.33,1.47,3.17l1.39,3.12,1.81,4.23,1.22,3,1.14,2.87c.24.6,1.07,2.77,1.07,2.77l1,2.68q1,2.67,1.8,5.13l1,3.1.74,2.32.66,2.14.6,2,.53,1.87.62,2.21.53.11,23-8c6.7-2.4,10.59-5.81,11.56-10.12,1.68-7.37-5.58-15.23-6.41-16.1l-73.2-55.92-.71.73,2,2.58c.55.7,1.1,1.42,1.64,2.13l1.06,1.4,1.63,2.21,1,1.32c.59.82,1.17,1.64,1.74,2.47l.74,1c.82,1.18,1.62,2.35,2.4,3.53s1.55,2.36,2.29,3.51c0,0,1.71,2.71,2.19,3.5h0s1.69,2.77,2.11,3.48ZM938.91,603l.32.38a6.62,6.62,0,0,0,5.22,2.21,14.54,14.54,0,0,0,5.76-1.4l19.21-14.49-1-.75c-1.28-1-2.57-2-3.84-3l-.31-.25q-1.78-1.45-3.54-2.94l-.85-.72ZM877.69,448.26l1.23,1.23,15.78,27.68L921,450.9,893.17,435l-1.12-1.15Zm13-23.09a3.24,3.24,0,0,0-2.31.95L869.92,444.6a3.27,3.27,0,0,0,4.62,4.63L893,430.75a3.25,3.25,0,0,0,1-2.31,3.21,3.21,0,0,0-1-2.31A3.25,3.25,0,0,0,890.71,425.17ZM868,438.6l2.86,2.86,14.36-14.37-2.86-2.86Zm13-23.09a3.21,3.21,0,0,0-2.31,1l-18.48,18.47a3.27,3.27,0,0,0,4.62,4.63l18.48-18.48a3.27,3.27,0,0,0-2.31-5.58Zm-18.55-10c-.4.72-.74,1.32-1.1,1.9s-.86,1.3-1.28,1.88l-.24.33c-.41.55-.84,1.1-1.29,1.62l-.18.2c-.55.63-1,1.16-1.54,1.67s-1,1-1.59,1.47l-.29.26q-.78.66-1.62,1.29l-.19.14c-.71.51-1.3.92-1.9,1.3s-1.3.78-1.91,1.11l-.55.3.18.61,12.23,12.25,14.36-14.36-12.7-12.71Zm-62,4.61.49.37c9.35,7.07,20.24,11,30.65,11a36.07,36.07,0,0,0,15.28-3.23,31.26,31.26,0,0,0,7.91-5.26c.33-.3.66-.61,1-.94A30.94,30.94,0,0,0,862,403.1c6.23-13.44,3.2-31.47-7.73-45.94l-.37-.49Zm3.82-51a6.24,6.24,0,0,1-.64.75,6.1,6.1,0,0,1-.72.61l-.38.25.17.44,14.87,29.62,17-17-30-15.07-.26.39Zm-5.54-9.56a5.4,5.4,0,0,0-3.82,9.22,5.28,5.28,0,0,0,3.78,1.56,5.52,5.52,0,0,0,2.45-.58,5,5,0,0,0,2.39-2.39,5.38,5.38,0,0,0-4.8-7.81Z" style="fill: rgb(255, 8, 149);" transform="matrix(1, 0, 0, 1, 2.842170943040401e-14, 7.105427357601002e-15)"/><path class="cls-7" d="M934.45,502.84a12.41,12.41,0,1,1,8.78-3.63,12.36,12.36,0,0,1-8.78,3.63Zm0-23.3a10.87,10.87,0,1,0,7.7,3.19A10.79,10.79,0,0,0,934.45,479.54Z" style="fill: rgb(255, 8, 149);" transform="matrix(1, 0, 0, 1, 2.842170943040401e-14, 7.105427357601002e-15)"/><path class="cls-7" d="M969.77,538.17a12.39,12.39,0,1,1,8.79-3.63A12.34,12.34,0,0,1,969.77,538.17Zm0-23.3a10.88,10.88,0,1,0,7.7,18.58,10.88,10.88,0,0,0-7.7-18.58Z" style="fill: rgb(255, 8, 149);" transform="matrix(1, 0, 0, 1, 2.842170943040401e-14, 7.105427357601002e-15)"/><path class="cls-7" d="M1005.1,573.5a12.43,12.43,0,1,1,8.78-3.64A12.39,12.39,0,0,1,1005.1,573.5Zm0-23.3a10.86,10.86,0,1,0,7.7,3.18A10.84,10.84,0,0,0,1005.1,550.2Z" style="fill: rgb(255, 8, 149);" transform="matrix(1, 0, 0, 1, 2.842170943040401e-14, 7.105427357601002e-15)"/><path d="M 1038.930054 573.630005 H 1040.470054 V 617.730003 H 1038.930054 V 573.630005 Z" class="cls-7" transform="matrix(0.7077235695292082, -0.7064894543677464, 0.7064894543677464, 0.7077235695292082, -116.94999694824217, 908.6599731445312)" style="fill: rgb(255, 8, 149);"/><path class="cls-7" d="M158.75,708.36c-45.71,0-81.52-11.47-81.52-26.12,0-14.44,35.28-25.91,80.31-26.11h.4V604.9a24.55,24.55,0,0,1,23.42-24.56l.39,0v-.38a57.35,57.35,0,0,1,54.8-56.05H237c9.77,0,17.63,22.84,18.31,53.14v.36l1.46.17.12-.27a9.12,9.12,0,0,1,17.4,3l0,.23a3.57,3.57,0,0,1,0,1.19l0,.24a9.13,9.13,0,0,1-17.4,3l-.12-.27-1.46.17v.36c-.67,30.21-8.52,53-18.25,53.14l-.52,0a57.34,57.34,0,0,1-54.81-56v-.42l-.43,0a23,23,0,0,0-21.77,22.95v51.22H160c45,.2,80.3,11.67,80.3,26.11C240.26,696.89,204.46,708.36,158.75,708.36Zm-1.22-50.63c-43.39.22-78.69,11.21-78.69,24.51s36.6,24.51,79.91,24.51,79.9-11.22,79.9-24.51S203.35,658,160,657.73h-.41v24.51a.81.81,0,0,1-1.61,0V657.73Zm63-68.71,0,.39.08,1.71c.84,14.8,3.56,28.12,7.45,36.59l.26.56c2.28,4.63,4.78,7.44,7.29,8.24l.56.13.34.06a4.9,4.9,0,0,0,.54,0c7.63,0,16-19.17,16.71-51.22v-.47Zm10.28-63a55.67,55.67,0,0,0,0,110.13l1.18.17L230.66,635c-6.44-7.17-11-25-11.83-46.61-.1-2.49-.15-4.92-.15-7.24s0-4.74.15-7.23c.85-21.58,5.39-39.44,11.83-46.61l1.19-1.25Zm34.42,47.49a7.58,7.58,0,0,0-7.14,5.14,8.5,8.5,0,0,0-.41,1.85c0,.19,0,.39,0,.58a7.55,7.55,0,0,0,15.07.69l0-.26c0-.21,0-.32,0-.43s0-.21,0-.31l0-.37A7.51,7.51,0,0,0,265.22,573.54Zm-44.91,5c0,.88,0,1.74,0,2.6,0,1.06,0,2.15,0,3.25l.09,3,35.86-4.29-.08-.43c0-.23-.12-.83-.12-.83q0-.37,0-.75t0-.75s.08-.61.11-.76l.08-.43-.42-.11-35.44-4.24Zm16.68-53a4.92,4.92,0,0,0-.52,0l-.34.06a3.14,3.14,0,0,0-.51.12c-2.56.81-5.06,3.62-7.29,8.16l-.24.49c-4,8.62-6.68,21.95-7.51,36.72l-.11,2.12,33.26,4v-.47c-.75-32.05-9.08-51.21-16.68-51.22Z" style="fill: rgb(255, 8, 149);" transform="matrix(1, 0, 0, 1, 2.842170943040401e-14, 7.105427357601002e-15)"/><path class="cls-8" d="M832.2,732.94h-.47l-.2-.13c-63.55-38.83-63.1-110-63.09-110.73,0-78.88,60.91-81.2,63.5-81.26s63.55,2.39,63.55,81.27c0,.7.46,71.89-63.08,110.72ZM832,542.49c-2.49.06-61.84,2.33-61.84,79.6,0,.72-.42,70.64,61.86,109,62.27-38.39,61.86-108.31,61.85-109C893.82,544.82,834.48,542.55,832,542.49Zm4.45,173.6h-8.87a3.65,3.65,0,0,1,0-7.3h8.87a3.65,3.65,0,0,1,0,7.3Zm-8.87-5.62a2,2,0,0,0,0,3.94h8.87a2,2,0,1,0,0-3.94Zm24.89-27.69a11.58,11.58,0,0,1-8.37-3.07c-3.17-3.14-4-8.22-2.3-14.31,1.63-5.93,5.46-12.14,10.77-17.5,7.24-7.32,16.19-11.86,23.35-11.86a11.57,11.57,0,0,1,8.37,3.07c6.41,6.35,2.61,20.62-8.46,31.81C868.54,678.23,859.59,682.78,852.42,682.78Zm23.45-45.07c-6.73,0-15.23,4.35-22.16,11.36-5.11,5.16-8.79,11.12-10.35,16.77-1.52,5.48-.85,10,1.87,12.68a10,10,0,0,0,7.19,2.59c6.74,0,15.23-4.36,22.17-11.37C885,659.21,888.82,646,883.06,640.3A10,10,0,0,0,875.87,637.71Zm-64.35,45.07c-7.17,0-16.12-4.55-23.36-11.86-11.08-11.19-14.87-25.46-8.46-31.81a11.56,11.56,0,0,1,8.36-3.07c7.17,0,16.12,4.54,23.36,11.86,5.31,5.36,9.13,11.58,10.77,17.5,1.68,6.09.86,11.17-2.31,14.31A11.56,11.56,0,0,1,811.52,682.78Zm-23.46-45.07a10,10,0,0,0-7.19,2.59c-5.75,5.7-2,18.91,8.48,29.44,6.94,7,15.43,11.37,22.17,11.37a9.92,9.92,0,0,0,7.18-2.59c2.73-2.7,3.39-7.2,1.88-12.68-1.56-5.65-5.24-11.6-10.35-16.77C803.29,642.06,794.8,637.71,788.06,637.71Z" style="fill: rgb(16, 255, 232);" transform="matrix(1, 0, 0, 1, 2.842170943040401e-14, 7.105427357601002e-15)"/><path class="cls-8" d="M1023.78,350.39a89.5,89.5,0,1,1,89.5-89.5A89.59,89.59,0,0,1,1023.78,350.39Zm0-177.32a87.83,87.83,0,1,0,87.83,87.82A87.92,87.92,0,0,0,1023.78,173.07Z" style="fill: rgb(16, 255, 232);" transform="matrix(1, 0, 0, 1, 2.842170943040401e-14, 7.105427357601002e-15)"/><path class="cls-8" d="M1062.65,413.94l-26-45.95,1.23-.17a107.53,107.53,0,0,0,24.47-6.19l1.16-.44Zm-23.29-44.63,21.72,38.45.75-44.13A109.5,109.5,0,0,1,1039.36,369.31Z" style="fill: rgb(16, 255, 232);" transform="matrix(1, 0, 0, 1, 2.842170943040401e-14, 7.105427357601002e-15)"/><path class="cls-8" d="M984,160.6l.89-52.75,26,46-1.23.16a107.42,107.42,0,0,0-24.47,6.2ZM986.48,114l-.75,44.13a109.14,109.14,0,0,1,22.48-5.69Z" style="fill: rgb(16, 255, 232);" transform="matrix(1, 0, 0, 1, 2.842170943040401e-14, 7.105427357601002e-15)"/><path class="cls-8" d="M1159.49,341.63l-50.85-14.14.75-1a107.91,107.91,0,0,0,12.92-21.69l.51-1.13Zm-48-15.09L1154,338.37l-30.68-31.74A110.42,110.42,0,0,1,1111.47,326.54Z" style="fill: rgb(16, 255, 232);" transform="matrix(1, 0, 0, 1, 2.842170943040401e-14, 7.105427357601002e-15)"/><path class="cls-8" d="M1130.88,248l-.17-1.23a107,107,0,0,0-6.19-24.47l-.44-1.16,52.75.89Zm-4.36-25.15a109.14,109.14,0,0,1,5.69,22.48l38.44-21.73Z" style="fill: rgb(16, 255, 232);" transform="matrix(1, 0, 0, 1, 2.842170943040401e-14, 7.105427357601002e-15)"/><path class="cls-8" d="M1090.39,176l-1-.75a107.18,107.18,0,0,0-21.69-12.92l-1.13-.51,37.94-36.68Zm-20.87-14.69a109.7,109.7,0,0,1,19.92,11.86l11.82-42.55Z" style="fill: rgb(16, 255, 232);" transform="matrix(1, 0, 0, 1, 2.842170943040401e-14, 7.105427357601002e-15)"/><path class="cls-8" d="M924.75,218.09l-36.67-37.94,50.86,14.13-.76,1A107.73,107.73,0,0,0,925.26,217Zm-31.19-34.68,30.68,31.75a109.49,109.49,0,0,1,11.87-19.93Z" style="fill: rgb(16, 255, 232);" transform="matrix(1, 0, 0, 1, 2.842170943040401e-14, 7.105427357601002e-15)"/><path class="cls-8" d="M943.05,396.59l14.13-50.85,1,.76a108.47,108.47,0,0,0,21.69,12.92l1.13.5Zm15.08-48-11.82,42.55L978,360.44A110,110,0,0,1,958.13,348.57Z" style="fill: rgb(16, 255, 232);" transform="matrix(1, 0, 0, 1, 2.842170943040401e-14, 7.105427357601002e-15)"/><path class="cls-8" d="M923.49,300.65l-52.75-.9,46-26,.16,1.23a107.17,107.17,0,0,0,6.2,24.47Zm-46.57-2.46,44.13.75a108.58,108.58,0,0,1-5.69-22.47Z" style="fill: rgb(16, 255, 232);" transform="matrix(1, 0, 0, 1, 2.842170943040401e-14, 7.105427357601002e-15)"/><path class="cls-8" d="M1128.88,285.25l.26-1.16a110.38,110.38,0,0,0,2.23-15.66l.09-1.18L1163.24,281Zm4.07-15.53A107.76,107.76,0,0,1,1131,283.3l25.92-3.19Z" style="fill: rgb(16, 255, 232);" transform="matrix(1, 0, 0, 1, 2.842170943040401e-14, 7.105427357601002e-15)"/><path class="cls-8" d="M916.11,254.53l-31.78-13.78,34.36-4.21-.26,1.15a107.77,107.77,0,0,0-2.23,15.66Zm-25.47-12.86,24,10.39a108.54,108.54,0,0,1,1.93-13.58Z" style="fill: rgb(16, 255, 232);" transform="matrix(1, 0, 0, 1, 2.842170943040401e-14, 7.105427357601002e-15)"/><path class="cls-8" d="M910.94,345.26,932.25,318l.64,1a109.18,109.18,0,0,0,9.49,12.67l.77.89Zm21.18-24.4L916,341.45l24.31-9.61A109.83,109.83,0,0,1,932.12,320.86Z" style="fill: rgb(16, 255, 232);" transform="matrix(1, 0, 0, 1, 2.842170943040401e-14, 7.105427357601002e-15)"/><path class="cls-8" d="M1108.15,373.74l-27.28-21.32,1-.64a107.23,107.23,0,0,0,12.67-9.49l.89-.77Zm-24.4-21.19,20.59,16.08-9.61-24.3A109,109,0,0,1,1083.75,352.55Z" style="fill: rgb(16, 255, 232);" transform="matrix(1, 0, 0, 1, 2.842170943040401e-14, 7.105427357601002e-15)"/><path class="cls-8" d="M1048.14,155.79l-1.15-.25a109.31,109.31,0,0,0-15.67-2.24l-1.18-.08,13.78-31.78Zm-15.52-4.07a111.67,111.67,0,0,1,13.57,1.94L1043,127.75Z" style="fill: rgb(16, 255, 232);" transform="matrix(1, 0, 0, 1, 2.842170943040401e-14, 7.105427357601002e-15)"/><path class="cls-8" d="M1003.65,400.35,999.43,366l1.15.25a108.11,108.11,0,0,0,15.67,2.24l1.18.08Zm-2.27-32.23,3.18,25.92,10.39-24A110.55,110.55,0,0,1,1001.38,368.12Z" style="fill: rgb(16, 255, 232);" transform="matrix(1, 0, 0, 1, 2.842170943040401e-14, 7.105427357601002e-15)"/><path class="cls-8" d="M952.15,180.27,939.42,148l27.28,21.32-1,.64A107.24,107.24,0,0,0,953,179.49Zm-8.92-27.13,9.6,24.32a109.2,109.2,0,0,1,11-8.23Z" style="fill: rgb(16, 255, 232);" transform="matrix(1, 0, 0, 1, 2.842170943040401e-14, 7.105427357601002e-15)"/><path class="cls-8" d="M1115.31,203.81l-.63-1a108,108,0,0,0-9.5-12.66l-.77-.9,32.22-12.73Zm-8.09-13.87a110.9,110.9,0,0,1,8.22,11l16.08-20.58Z" style="fill: rgb(16, 255, 232);" transform="matrix(1, 0, 0, 1, 2.842170943040401e-14, 7.105427357601002e-15)"/><path class="cls-8" d="M1068.05,272.93A13.94,13.94,0,1,1,1082,259,13.95,13.95,0,0,1,1068.05,272.93Zm0-26.2A12.26,12.26,0,1,0,1080.31,259,12.27,12.27,0,0,0,1068.05,246.73Z" style="fill: rgb(16, 255, 232);" transform="matrix(1, 0, 0, 1, 2.842170943040401e-14, 7.105427357601002e-15)"/><path class="cls-8" d="M1038,323.44a18.28,18.28,0,1,1,18.27-18.28A18.3,18.3,0,0,1,1038,323.44Zm0-34.88a16.6,16.6,0,1,0,16.6,16.6A16.63,16.63,0,0,0,1038,288.56Z" style="fill: rgb(16, 255, 232);" transform="matrix(1, 0, 0, 1, 2.842170943040401e-14, 7.105427357601002e-15)"/><path class="cls-7" d="M651.37,329.74a6.56,6.56,0,0,1-2.43-.47l-67.17-26.48a6.64,6.64,0,0,1-3.73-8.6l45.07-114.3a6.58,6.58,0,0,1,6.16-4.19,6.38,6.38,0,0,1,2.44.47l67.17,26.48a6.63,6.63,0,0,1,3.73,8.6L657.55,325.54A6.63,6.63,0,0,1,651.37,329.74Zm-22.1-152.37a4.92,4.92,0,0,0-4.6,3.14L579.59,294.8a5,5,0,0,0,2.8,6.43l67.17,26.49a4.89,4.89,0,0,0,1.81.34,5,5,0,0,0,4.62-3.14l45.07-114.28a5,5,0,0,0-.07-3.81,4.91,4.91,0,0,0-2.73-2.62L631.1,177.72A5,5,0,0,0,629.27,177.37Z" style="fill: rgb(255, 8, 149);" transform="matrix(1, 0, 0, 1, 2.842170943040401e-14, 7.105427357601002e-15)"/><path class="cls-7" d="M794.82,302.84h0a6.84,6.84,0,0,1-2.28-.4l-97.46-1.07-.14-.05a6.64,6.64,0,0,1-3.74-8.6l46.35-117.53A6.65,6.65,0,0,1,746,171.4l97.46,1.06.14.06a6.61,6.61,0,0,1,3.74,8.59L801,298.64A6.58,6.58,0,0,1,794.82,302.84Zm-99.4-3.13,97.44,1.06.15.05a4.9,4.9,0,0,0,1.81.35h0a5,5,0,0,0,4.62-3.14L845.79,180.5a5,5,0,0,0-2.66-6.37l-97.45-1.06-.14-.06a5,5,0,0,0-6.44,2.8L692.76,293.33A5,5,0,0,0,695.42,299.71Zm41-19.49a6.57,6.57,0,0,1-2.44-.46l-.72-.29a6.62,6.62,0,0,1-3.74-8.6l27.64-70.08a6.61,6.61,0,0,1,8.6-3.73l.72.28a6.63,6.63,0,0,1,3.75,8.6L742.6,276A6.57,6.57,0,0,1,736.44,280.22Zm26.91-82a4.93,4.93,0,0,0-4.61,3.13L731.1,271.49a5,5,0,0,0,2.79,6.43l.72.28a5,5,0,0,0,1.83.35,4.94,4.94,0,0,0,4.61-3.14l27.64-70.08a5,5,0,0,0-2.8-6.43l-.72-.28A5,5,0,0,0,763.35,198.27Zm10.92,81.51a6.66,6.66,0,0,1-2.44-.47l-.73-.29a6.61,6.61,0,0,1-3.72-8.59L795,200.35a6.65,6.65,0,0,1,8.61-3.74l.71.28a6.63,6.63,0,0,1,3.74,8.61l-27.63,70.08A6.6,6.6,0,0,1,774.27,279.78Zm26.92-82a4.94,4.94,0,0,0-4.62,3.14L768.93,271a5,5,0,0,0,2.79,6.43l.73.29a4.94,4.94,0,0,0,6.43-2.79l27.63-70.09a5,5,0,0,0-2.79-6.43l-.72-.28A4.9,4.9,0,0,0,801.19,197.82Z" style="fill: rgb(255, 8, 149);" transform="matrix(1, 0, 0, 1, 2.842170943040401e-14, 7.105427357601002e-15)"/><path class="cls-7" d="M569.67,251.42h0a6.67,6.67,0,0,1-2.42-.46l-.26-.16-71.84-65.65a6.63,6.63,0,0,1-3.59-8.54L537.91,59.08a6.61,6.61,0,0,1,8.6-3.73l.26.16,71.83,65.64a6.66,6.66,0,0,1,3.59,8.55L575.84,247.21A6.59,6.59,0,0,1,569.67,251.42Zm-1.68-2a4.88,4.88,0,0,0,1.68.3,5,5,0,0,0,4.62-3.15l46.34-117.52a5,5,0,0,0-2.79-6.43l-.26-.16L545.76,56.85a5,5,0,0,0-1.68-.29,5,5,0,0,0-4.62,3.14L493.12,177.22a4.94,4.94,0,0,0,2.79,6.43l.26.16Zm-11.43-40.16a6.76,6.76,0,0,1-2.43-.46l-.73-.29a6.64,6.64,0,0,1-3.73-8.6l27.64-70.08a6.6,6.6,0,0,1,8.6-3.74l.73.29a6.63,6.63,0,0,1,3.73,8.59l-27.64,70.08A6.6,6.6,0,0,1,556.56,209.29Zm26.92-82a4.92,4.92,0,0,0-4.61,3.15l-27.64,70.08A5,5,0,0,0,554,207l.73.29a4.93,4.93,0,0,0,6.42-2.8l27.64-70.08A4.94,4.94,0,0,0,586,128l-.73-.3A4.9,4.9,0,0,0,583.48,127.32Zm-54.27,55.82a6.5,6.5,0,0,1-2.42-.46l-.73-.29a6.65,6.65,0,0,1-3.74-8.6L550,103.7a6.64,6.64,0,0,1,8.6-3.73l.72.28a6.65,6.65,0,0,1,3.74,8.61l-27.64,70.08A6.61,6.61,0,0,1,529.21,183.14Zm26.92-82a4.94,4.94,0,0,0-4.61,3.14L523.88,174.4a5,5,0,0,0,2.8,6.44l.72.28a4.94,4.94,0,0,0,6.43-2.79l27.64-70.09a5,5,0,0,0-2.79-6.43l-.72-.28A5.08,5.08,0,0,0,556.13,101.18Z" style="fill: rgb(255, 8, 149);" transform="matrix(1, 0, 0, 1, 2.842170943040401e-14, 7.105427357601002e-15)"/><path class="cls-7" d="M617.24,355.31h0a9.54,9.54,0,0,1-3.49-.67l-23.58-9.3A9.53,9.53,0,0,1,584.81,333l6.68-17,41.31,16.28-6.69,17A9.49,9.49,0,0,1,617.24,355.31ZM592.43,318.2l-6.07,15.4a7.86,7.86,0,0,0,4.43,10.18l23.57,9.3a7.76,7.76,0,0,0,2.88.55h0a7.83,7.83,0,0,0,7.32-5l6.07-15.39Z" style="fill: rgb(255, 8, 149);" transform="matrix(1, 0, 0, 1, 2.842170943040401e-14, 7.105427357601002e-15)"/><path class="cls-7" d="M590.31,391.37a11.86,11.86,0,1,1,11-7.51A11.83,11.83,0,0,1,590.31,391.37Zm0-22a10.18,10.18,0,1,0,3.73.71A10.11,10.11,0,0,0,590.32,369.34Z" style="fill: rgb(255, 8, 149);" transform="matrix(1, 0, 0, 1, 2.842170943040401e-14, 7.105427357601002e-15)"/><path class="cls-7" d="M600.79,369.46,589.53,365l6.36-16.11,11.26,4.44Zm-9.09-5.38,8.15,3.21,5.13-13-8.15-3.21Z" style="fill: rgb(255, 8, 149);" transform="matrix(1, 0, 0, 1, 2.842170943040401e-14, 7.105427357601002e-15)"/><path class="cls-7" d="M694.47,197.73l-56.18-22.16,4.3-10.9,56.18,22.15Zm-54-23.1,53.07,20.93,3.07-7.79-53.07-20.93Z" style="fill: rgb(255, 8, 149);" transform="matrix(1, 0, 0, 1, 2.842170943040401e-14, 7.105427357601002e-15)"/><path class="cls-6" d="M1223.4,438.63h-61a.84.84,0,0,1-.83-.93,31.55,31.55,0,0,1,62.66,0,.86.86,0,0,1-.2.65A.84.84,0,0,1,1223.4,438.63Zm-60-1.67h59.08a29.88,29.88,0,0,0-59.08,0Z" style="fill: rgb(249, 237, 50);" transform="matrix(1, 0, 0, 1, 2.842170943040401e-14, 7.105427357601002e-15)"/><path class="cls-6" d="M1266.72,507.56H1119.08c-12.77,0-14.57-14.35-14.59-14.5a.86.86,0,0,1,.21-.65.84.84,0,0,1,.62-.28h175.16a.83.83,0,0,1,.83.93C1281.3,493.21,1279.49,507.56,1266.72,507.56ZM1106.31,493.8c.58,3,3.16,12.09,12.77,12.09h147.64c9.62,0,12.19-9.09,12.78-12.09Z" style="fill: rgb(249, 237, 50);" transform="matrix(1, 0, 0, 1, 2.842170943040401e-14, 7.105427357601002e-15)"/><path class="cls-6" d="M1223.26,519.54h-60.72a.85.85,0,0,1-.78-.53L1157,507a.81.81,0,0,1,.09-.77.82.82,0,0,1,.69-.37H1228a.85.85,0,0,1,.69.37.84.84,0,0,1,.08.77L1224,519A.83.83,0,0,1,1223.26,519.54Zm-60.15-1.67h59.59l4.08-10.31H1159Z" style="fill: rgb(249, 237, 50);" transform="matrix(1, 0, 0, 1, 2.842170943040401e-14, 7.105427357601002e-15)"/><path class="cls-6" d="M1280.48,493.8H1105.32a.83.83,0,0,1-.22,0l-9.31-2.57a1.07,1.07,0,0,1-.22-.1c-2.25-1.41-3.32-2.89-3.19-4.41.19-2.27,3-3.48,3.32-3.61l9.56-3.18a.75.75,0,0,1,.26,0h174.76a.86.86,0,0,1,.27,0l9.5,3.16c.37.15,3.18,1.36,3.38,3.63.13,1.52-1,3-3.2,4.41a1.07,1.07,0,0,1-.22.1l-9.31,2.57A.78.78,0,0,1,1280.48,493.8Zm-175-1.67h174.93l9.07-2.51c1.56-1,2.39-2,2.32-2.78-.1-1.08-1.73-2-2.29-2.21l-9.32-3.1H1105.66l-9.38,3.12c-.51.22-2.15,1.12-2.24,2.19-.06.8.76,1.78,2.32,2.78Z" style="fill: rgb(249, 237, 50);" transform="matrix(1, 0, 0, 1, 2.842170943040401e-14, 7.105427357601002e-15)"/><path class="cls-6" d="M1280.28,481.53H1105.52a.84.84,0,0,1-.83-.84c0-31.29,47-36,47.48-36.07h81.39c.55.05,47.56,4.79,47.56,36.08A.85.85,0,0,1,1280.28,481.53Zm-173.91-1.68h173.06c-.84-29-45.5-33.52-46-33.57h-81.23C1151.87,446.33,1107.22,450.84,1106.37,479.85Z" style="fill: rgb(249, 237, 50);" transform="matrix(1, 0, 0, 1, 2.842170943040401e-14, 7.105427357601002e-15)"/><path class="cls-6" d="M1233.56,446.29h-81.31a.84.84,0,0,1,0-1.68c5.93,0,8.69-7,8.72-7.11a.82.82,0,0,1,.78-.54h62.3a.82.82,0,0,1,.78.54c0,.07,2.79,7.11,8.73,7.11a.84.84,0,0,1,0,1.68Zm-76-1.68h70.76a15,15,0,0,1-4.78-6h-61.2A14.91,14.91,0,0,1,1157.52,444.61Z" style="fill: rgb(249, 237, 50);" transform="matrix(1, 0, 0, 1, 2.842170943040401e-14, 7.105427357601002e-15)"/><path class="cls-6" d="M1190.78,543.25a.84.84,0,0,1-.83-.92,10.53,10.53,0,0,0-3.45-9.17,10.24,10.24,0,0,1-.76,4,.85.85,0,0,1-.49.46.8.8,0,0,1-.66,0c-5.75-3-5.45-13.19-4.76-19a.83.83,0,0,1,.83-.73h23.26a.83.83,0,0,1,.79.54c4.8,13.09-2.48,20.34-2.79,20.65a.87.87,0,0,1-.91.17.85.85,0,0,1-.51-.78,7.81,7.81,0,0,0-3.11-5.89c.09,5.86-5.83,10.32-6.11,10.53A.93.93,0,0,1,1190.78,543.25Zm-5.81-13a.86.86,0,0,1,.36.08,12.26,12.26,0,0,1,6.34,10.21c1.87-1.83,4.85-5.49,3.84-9.52a.84.84,0,0,1,1.2-.94c.19.1,4.15,2.23,5.21,6.35,1.71-2.52,4.38-8.25,1.41-16.87h-21.92c-.46,4.39-.78,13,3.12,16.05.33-1.2.57-3-.23-4a.86.86,0,0,1,0-1A.88.88,0,0,1,1185,530.23Z" style="fill: rgb(249, 237, 50);" transform="matrix(1, 0, 0, 1, 2.842170943040401e-14, 7.105427357601002e-15)"/><path class="cls-6" d="M1193.64,575.76a.86.86,0,0,1-.41-.1.84.84,0,0,1-.37-1,33,33,0,0,0-.15-24.48,17.65,17.65,0,0,1-6.79,13.19.83.83,0,0,1-1,0,.84.84,0,0,1-.3-.93,17.26,17.26,0,0,0-4.3-17.64V552a.85.85,0,0,1-.46.75.83.83,0,0,1-.86-.06c-15.33-10.89-10.29-33.9-10.23-34.13a.83.83,0,0,1,.81-.65h11.05a.84.84,0,0,1,.63.28.8.8,0,0,1,.2.65c-.49,4.08-1.09,13.52,3,16.79.33-1.2.57-3-.23-4a.84.84,0,0,1,1-1.26,12.26,12.26,0,0,1,6.34,10.21c1.87-1.83,4.85-5.49,3.84-9.52a.84.84,0,0,1,1.2-.94c.19.1,4.15,2.23,5.21,6.35,1.74-2.57,4.49-8.49,1.22-17.42a.83.83,0,0,1,.78-1.12h10.43a.83.83,0,0,1,.78.53,36.86,36.86,0,0,1-6.72,38.51.84.84,0,0,1-.75.23.86.86,0,0,1-.61-.5l-2.7-6.44c-.14,12.08-9.56,24.6-10,25.24A.83.83,0,0,1,1193.64,575.76Zm-1.85-30.18a.82.82,0,0,1,.69.38,32.85,32.85,0,0,1,3.59,23.74c3.72-6.3,9-17.67,5.34-26.52a.77.77,0,0,1-.07-.32.82.82,0,0,1,.51-.77.83.83,0,0,1,1.1.44l5.13,12.24a35.24,35.24,0,0,0,5.7-35.23h-8.68c4,12.37-2.88,19.22-3.18,19.52a.87.87,0,0,1-.91.17.85.85,0,0,1-.51-.78,7.87,7.87,0,0,0-3.11-5.89c.08,5.86-5.83,10.32-6.11,10.53a.86.86,0,0,1-.91,0,.82.82,0,0,1-.42-.81,10.53,10.53,0,0,0-3.45-9.17,10.24,10.24,0,0,1-.76,4,.85.85,0,0,1-.49.46.8.8,0,0,1-.66,0c-5.46-2.83-5.47-12.15-4.86-18.07h-9.43c-.65,3.6-3.12,21.19,8.37,30.73v-7.41a.84.84,0,0,1,1.35-.67c.09.07,8.85,6.89,6.91,18a17.18,17.18,0,0,0,4-13.64.85.85,0,0,1,.55-.88A1,1,0,0,1,1191.79,545.58Z" style="fill: rgb(249, 237, 50);" transform="matrix(1, 0, 0, 1, 2.842170943040401e-14, 7.105427357601002e-15)"/><path class="cls-6" d="M1192.9,411.57a.84.84,0,0,1-.84-.84V365.46a.84.84,0,1,1,1.68,0v45.27A.84.84,0,0,1,1192.9,411.57Z" style="fill: rgb(249, 237, 50);" transform="matrix(1, 0, 0, 1, 2.842170943040401e-14, 7.105427357601002e-15)"/><path class="cls-6" d="M1192.9,366.3a8.57,8.57,0,1,1,8.57-8.57A8.58,8.58,0,0,1,1192.9,366.3Zm0-15.47a6.9,6.9,0,1,0,6.9,6.9A6.91,6.91,0,0,0,1192.9,350.83Z" style="fill: rgb(249, 237, 50);" transform="matrix(1, 0, 0, 1, 2.842170943040401e-14, 7.105427357601002e-15)"/><path class="cls-8" d="M944.84,885.53a38,38,0,0,1-17.6-71.61l263.65-137.69a8.3,8.3,0,0,1,11.22,3.52,8.3,8.3,0,0,1-3.52,11.22l-97.83,51.1a2.65,2.65,0,0,0-1.31,1.55,2.65,2.65,0,0,0,3.76,3.14L1236,677.42a5.15,5.15,0,0,1,2.34-.57,5.06,5.06,0,0,1,2.34,9.54l-178.87,93.43a2.64,2.64,0,0,0-1.12,3.57,2.68,2.68,0,0,0,3.57,1.12l110.91-57.93a8.48,8.48,0,0,1,3.85-.94,8.32,8.32,0,0,1,3.85,15.69l-80.37,42a2.65,2.65,0,0,0-1.12,3.57,2.7,2.7,0,0,0,3.57,1.13l162.46-84.85a8.32,8.32,0,0,1,7.7,14.74L962.38,881.21A38.1,38.1,0,0,1,944.84,885.53ZM1194.74,677a6.69,6.69,0,0,0-3.07.75L928,815.41a36.28,36.28,0,1,0,33.6,64.31l312.71-163.31a6.65,6.65,0,0,0-6.16-11.78l-162.45,84.85a4.38,4.38,0,0,1-2,.49,4.32,4.32,0,0,1-2-8.15l80.36-42a6.64,6.64,0,0,0,2.82-9,6.64,6.64,0,0,0-9-2.81L1065,786a4.32,4.32,0,0,1-4-7.66l178.88-93.42a3.39,3.39,0,0,0,1.43-4.57,3.44,3.44,0,0,0-4.57-1.43L1104,748.25a4.32,4.32,0,0,1-5.83-1.84,4.33,4.33,0,0,1,1.83-5.83l97.84-51.09a6.64,6.64,0,0,0-3.08-12.53Z" style="fill: rgb(16, 255, 232);" transform="matrix(1, 0, 0, 1, 2.842170943040401e-14, 7.105427357601002e-15)"/><path class="cls-8" d="M946.53,872.81a25.1,25.1,0,1,1,25.09-25.1A25.13,25.13,0,0,1,946.53,872.81Zm0-48.52A23.43,23.43,0,1,0,970,847.71,23.45,23.45,0,0,0,946.53,824.29Z" style="fill: rgb(16, 255, 232);" transform="matrix(1, 0, 0, 1, 2.842170943040401e-14, 7.105427357601002e-15)"/><path class="cls-9" d="M270.65,180H160.58a.84.84,0,1,1,0-1.67H270.65a.84.84,0,1,1,0,1.67Z" style="fill: rgb(255, 255, 255);" transform="matrix(1, 0, 0, 1, 2.842170943040401e-14, 7.105427357601002e-15)"/><path class="cls-9" d="M246.72,140.38H202.41a.84.84,0,0,1-.84-.83.85.85,0,0,1,.84-.84h44.31a.85.85,0,0,1,.84.84A.84.84,0,0,1,246.72,140.38Z" style="fill: rgb(255, 255, 255);" transform="matrix(1, 0, 0, 1, 2.842170943040401e-14, 7.105427357601002e-15)"/><path class="cls-9" d="M849.35,497.69H805a.84.84,0,0,1,0-1.68h44.32a.84.84,0,0,1,0,1.68Z" style="fill: rgb(255, 255, 255);" transform="matrix(1, 0, 0, 1, 2.842170943040401e-14, 7.105427357601002e-15)"/><path class="cls-9" d="M1147.46,864.71h-44.31a.85.85,0,0,1-.84-.84.84.84,0,0,1,.84-.83h44.31a.84.84,0,0,1,.84.83A.85.85,0,0,1,1147.46,864.71Z" style="fill: rgb(255, 255, 255);" transform="matrix(1, 0, 0, 1, 2.842170943040401e-14, 7.105427357601002e-15)"/><path class="cls-9" d="M152.45,503.68H81.67a.84.84,0,0,1,0-1.67h70.78a.84.84,0,1,1,0,1.67Z" style="fill: rgb(255, 255, 255);" transform="matrix(1, 0, 0, 1, 2.842170943040401e-14, 7.105427357601002e-15)"/><path class="cls-9" d="M552.56,401.07h-13.8a.85.85,0,0,1-.84-.84.84.84,0,0,1,.84-.83h13.8a.84.84,0,0,1,.84.83A.85.85,0,0,1,552.56,401.07Z" style="fill: rgb(255, 255, 255);" transform="matrix(1, 0, 0, 1, 2.842170943040401e-14, 7.105427357601002e-15)"/><path class="cls-9" d="M194.69,781.42h-13.8a.84.84,0,1,1,0-1.68h13.8a.84.84,0,0,1,0,1.68Z" style="fill: rgb(255, 255, 255);" transform="matrix(1, 0, 0, 1, 2.842170943040401e-14, 7.105427357601002e-15)"/><path class="cls-9" d="M673.68,372h-24a.84.84,0,0,1,0-1.67h24a.84.84,0,1,1,0,1.67Z" style="fill: rgb(255, 255, 255);" transform="matrix(1, 0, 0, 1, 2.842170943040401e-14, 7.105427357601002e-15)"/><path class="cls-9" d="M317.31,124.5a13.56,13.56,0,1,1,13.56-13.56A13.58,13.58,0,0,1,317.31,124.5Zm0-25.45a11.89,11.89,0,1,0,11.89,11.89A11.9,11.9,0,0,0,317.31,99.05Z" style="fill: rgb(255, 255, 255);" transform="matrix(1, 0, 0, 1, 2.842170943040401e-14, 7.105427357601002e-15)"/><path class="cls-9" d="M330,608.39a13.56,13.56,0,1,1,13.56-13.56A13.58,13.58,0,0,1,330,608.39ZM330,583a11.89,11.89,0,1,0,11.89,11.88A11.89,11.89,0,0,0,330,583Z" style="fill: rgb(255, 255, 255);" transform="matrix(1, 0, 0, 1, 2.842170943040401e-14, 7.105427357601002e-15)"/><path class="cls-9" d="M368.75,546.9a.87.87,0,0,1-.6-.25l-15.78-15.78a.84.84,0,1,1,1.19-1.18l15.78,15.78a.85.85,0,0,1,0,1.18A.87.87,0,0,1,368.75,546.9Z" style="fill: rgb(255, 255, 255);" transform="matrix(1, 0, 0, 1, 2.842170943040401e-14, 7.105427357601002e-15)"/><path class="cls-9" d="M353,546.9a.87.87,0,0,1-.6-.25.85.85,0,0,1,0-1.18l15.78-15.78a.84.84,0,1,1,1.19,1.18l-15.78,15.78A.87.87,0,0,1,353,546.9Z" style="fill: rgb(255, 255, 255);" transform="matrix(1, 0, 0, 1, 2.842170943040401e-14, 7.105427357601002e-15)"/><path class="cls-9" d="M1039.27,464.55a.81.81,0,0,1-.59-.25l-15.78-15.78a.83.83,0,0,1,1.18-1.18l15.78,15.78a.83.83,0,0,1,0,1.18A.81.81,0,0,1,1039.27,464.55Z" style="fill: rgb(255, 255, 255);" transform="matrix(1, 0, 0, 1, 2.842170943040401e-14, 7.105427357601002e-15)"/><path class="cls-9" d="M1023.49,464.55a.81.81,0,0,1-.59-.25.83.83,0,0,1,0-1.18l15.78-15.78a.83.83,0,1,1,1.18,1.18l-15.78,15.78A.81.81,0,0,1,1023.49,464.55Z" style="fill: rgb(255, 255, 255);" transform="matrix(1, 0, 0, 1, 2.842170943040401e-14, 7.105427357601002e-15)"/><path class="cls-9" d="M518.91,445.51a.84.84,0,0,1-.59-.24L492,419a.84.84,0,0,1,1.18-1.19l26.29,26.29a.84.84,0,0,1-.59,1.43Z" style="fill: rgb(255, 255, 255);" transform="matrix(1, 0, 0, 1, 2.842170943040401e-14, 7.105427357601002e-15)"/><path class="cls-9" d="M492.62,445.51a.84.84,0,0,1-.59-1.43l26.29-26.29A.84.84,0,1,1,519.5,419l-26.29,26.29A.82.82,0,0,1,492.62,445.51Z" style="fill: rgb(255, 255, 255);" transform="matrix(1, 0, 0, 1, 2.842170943040401e-14, 7.105427357601002e-15)"/><path class="cls-9" d="M860.11,141.91a.87.87,0,0,1-.59-.25l-26.29-26.29a.84.84,0,0,1,1.19-1.18l26.29,26.29a.85.85,0,0,1,0,1.18A.87.87,0,0,1,860.11,141.91Z" style="fill: rgb(255, 255, 255);" transform="matrix(1, 0, 0, 1, 2.842170943040401e-14, 7.105427357601002e-15)"/><path class="cls-9" d="M833.83,141.91a.87.87,0,0,1-.6-.25.85.85,0,0,1,0-1.18l26.29-26.29a.84.84,0,0,1,1.19,1.18l-26.29,26.29A.87.87,0,0,1,833.83,141.91Z" style="fill: rgb(255, 255, 255);" transform="matrix(1, 0, 0, 1, 2.842170943040401e-14, 7.105427357601002e-15)"/><path class="cls-9" d="M727.6,348.73a.87.87,0,0,1-.6-.25L711.23,332.7a.83.83,0,1,1,1.18-1.18l15.78,15.78a.85.85,0,0,1,0,1.18A.87.87,0,0,1,727.6,348.73Z" style="fill: rgb(255, 255, 255);" transform="matrix(1, 0, 0, 1, 2.842170943040401e-14, 7.105427357601002e-15)"/><path class="cls-9" d="M711.82,348.73a.84.84,0,0,1-.59-1.43L727,331.52a.84.84,0,0,1,1.19,1.18l-15.78,15.78A.87.87,0,0,1,711.82,348.73Z" style="fill: rgb(255, 255, 255);" transform="matrix(1, 0, 0, 1, 2.842170943040401e-14, 7.105427357601002e-15)"/><path class="cls-9" d="M902.55,771.77a.81.81,0,0,1-.59-.25l-15.78-15.78a.83.83,0,0,1,1.18-1.18l15.78,15.78a.83.83,0,0,1,0,1.18A.81.81,0,0,1,902.55,771.77Z" style="fill: rgb(255, 255, 255);" transform="matrix(1, 0, 0, 1, 2.842170943040401e-14, 7.105427357601002e-15)"/><path class="cls-9" d="M886.77,771.77a.81.81,0,0,1-.59-.25.83.83,0,0,1,0-1.18L902,754.56a.83.83,0,0,1,1.18,1.18l-15.78,15.78A.81.81,0,0,1,886.77,771.77Z" style="fill: rgb(255, 255, 255);" transform="matrix(1, 0, 0, 1, 2.842170943040401e-14, 7.105427357601002e-15)"/><path class="cls-9" d="M1266.16,302.84H1223.4a.84.84,0,1,1,0-1.67h42.76a.84.84,0,1,1,0,1.67Z" style="fill: rgb(255, 255, 255);" transform="matrix(1, 0, 0, 1, 2.842170943040401e-14, 7.105427357601002e-15)"/><path class="cls-9" d="M725.15,111.77H682.39a.84.84,0,1,1,0-1.67h42.76a.84.84,0,1,1,0,1.67Z" style="fill: rgb(255, 255, 255);" transform="matrix(1, 0, 0, 1, 2.842170943040401e-14, 7.105427357601002e-15)"/><path class="cls-9" d="M1190.14,637.71h-42.76a.84.84,0,0,1,0-1.67h42.76a.84.84,0,1,1,0,1.67Z" style="fill: rgb(255, 255, 255);" transform="matrix(1, 0, 0, 1, 2.842170943040401e-14, 7.105427357601002e-15)"/><path class="cls-9" d="M1326.4,370.72h-68.6a.84.84,0,1,1,0-1.67h68.6a.84.84,0,0,1,0,1.67Z" style="fill: rgb(255, 255, 255);" transform="matrix(1, 0, 0, 1, 2.842170943040401e-14, 7.105427357601002e-15)"/><path class="cls-9" d="M238.71,826.81h-68.6a.84.84,0,1,1,0-1.68h68.6a.84.84,0,0,1,0,1.68Z" style="fill: rgb(255, 255, 255);" transform="matrix(1, 0, 0, 1, 2.842170943040401e-14, 7.105427357601002e-15)"/><path class="cls-9" d="M1227.2,811.66h-68.6a.84.84,0,0,1-.83-.84.83.83,0,0,1,.83-.83h68.6a.84.84,0,0,1,.84.83A.85.85,0,0,1,1227.2,811.66Z" style="fill: rgb(255, 255, 255);" transform="matrix(1, 0, 0, 1, 2.842170943040401e-14, 7.105427357601002e-15)"/><path class="cls-9" d="M735.64,710.21H703.77a.84.84,0,1,1,0-1.67h31.87a.84.84,0,1,1,0,1.67Z" style="fill: rgb(255, 255, 255);" transform="matrix(1, 0, 0, 1, 2.842170943040401e-14, 7.105427357601002e-15)"/><path class="cls-9" d="M1217,622.34a10.54,10.54,0,1,1,10.54-10.53A10.54,10.54,0,0,1,1217,622.34Zm0-19.4a8.87,8.87,0,1,0,8.87,8.87A8.87,8.87,0,0,0,1217,602.94Z" style="fill: rgb(255, 255, 255);" transform="matrix(1, 0, 0, 1, 2.842170943040401e-14, 7.105427357601002e-15)"/></svg>